<svg xmlns="http://www.w3.org/2000/svg" xmlns:xlink="http://www.w3.org/1999/xlink" width="500" zoomAndPan="magnify" viewBox="0 0 375 374.999991" height="500" preserveAspectRatio="xMidYMid meet" version="1.0"><defs><g/></defs><g fill="#000000" fill-opacity="1"><g transform="translate(189.962796, 331.059959)"><g><path d="M -3.09375 14.640625 C -3.5625 20.710938 -5.144531 25.132812 -7.84375 27.90625 C -10.550781 30.6875 -14.164062 31.898438 -18.6875 31.546875 C -20.0625 31.441406 -21.195312 31.265625 -22.09375 31.015625 C -22.988281 30.765625 -23.820312 30.609375 -24.59375 30.546875 C -25.113281 30.503906 -25.632812 30.503906 -26.15625 30.546875 C -26.6875 30.597656 -27.253906 30.679688 -27.859375 30.796875 L -27.4375 19.046875 L -22.234375 18.84375 C -22.304688 19.3125 -22.363281 19.75 -22.40625 20.15625 C -22.457031 20.570312 -22.5 20.960938 -22.53125 21.328125 C -22.675781 23.222656 -22.453125 24.722656 -21.859375 25.828125 C -21.265625 26.929688 -20.09375 27.550781 -18.34375 27.6875 C -12.9375 28.101562 -9.894531 23.992188 -9.21875 15.359375 C -9.050781 13.296875 -9.085938 11.53125 -9.328125 10.0625 C -9.578125 8.59375 -10.019531 7.378906 -10.65625 6.421875 C -11.289062 5.460938 -12.117188 4.734375 -13.140625 4.234375 C -14.171875 3.734375 -15.378906 3.429688 -16.765625 3.328125 C -18.265625 3.210938 -19.769531 3.320312 -21.28125 3.65625 C -22.789062 3.988281 -24.257812 4.359375 -25.6875 4.765625 L -25.296875 -0.125 C -23.847656 -0.894531 -22.1875 -1.382812 -20.3125 -1.59375 C -18.445312 -1.8125 -16.648438 -1.851562 -14.921875 -1.71875 C -13.210938 -1.582031 -11.582031 -1.257812 -10.03125 -0.75 C -8.476562 -0.25 -7.144531 0.601562 -6.03125 1.8125 C -4.914062 3.03125 -4.082031 4.664062 -3.53125 6.71875 C -2.988281 8.769531 -2.84375 11.410156 -3.09375 14.640625 Z M -3.09375 14.640625 "/></g></g></g><g fill="#000000" fill-opacity="1"><g transform="translate(164.7213, 329.140292)"><g><path d="M -16.453125 16.421875 C -15.046875 16.765625 -13.785156 16.285156 -12.671875 14.984375 C -11.554688 13.691406 -10.6875 11.757812 -10.0625 9.1875 C -9.4375 6.664062 -9.257812 4.632812 -9.53125 3.09375 C -9.8125 1.5625 -10.710938 0.609375 -12.234375 0.234375 C -13.640625 -0.109375 -14.921875 0.390625 -16.078125 1.734375 C -17.242188 3.085938 -18.140625 5.050781 -18.765625 7.625 C -19.054688 8.832031 -19.253906 9.925781 -19.359375 10.90625 C -19.472656 11.894531 -19.457031 12.757812 -19.3125 13.5 C -19.164062 14.25 -18.859375 14.867188 -18.390625 15.359375 C -17.929688 15.859375 -17.285156 16.210938 -16.453125 16.421875 Z M -4.15625 10.5 C -4.601562 12.351562 -5.265625 13.96875 -6.140625 15.34375 C -7.015625 16.71875 -8.035156 17.816406 -9.203125 18.640625 C -10.378906 19.460938 -11.695312 19.992188 -13.15625 20.234375 C -14.613281 20.472656 -16.148438 20.394531 -17.765625 20 C -20.804688 19.25 -22.9375 17.691406 -24.15625 15.328125 C -25.375 12.972656 -25.554688 10.046875 -24.703125 6.546875 C -24.234375 4.671875 -23.554688 3.03125 -22.671875 1.625 C -21.796875 0.21875 -20.757812 -0.910156 -19.5625 -1.765625 C -18.363281 -2.628906 -17.039062 -3.191406 -15.59375 -3.453125 C -14.144531 -3.722656 -12.632812 -3.664062 -11.0625 -3.28125 C -9.5625 -2.90625 -8.273438 -2.300781 -7.203125 -1.46875 C -6.140625 -0.644531 -5.304688 0.359375 -4.703125 1.546875 C -4.109375 2.742188 -3.757812 4.097656 -3.65625 5.609375 C -3.5625 7.128906 -3.726562 8.757812 -4.15625 10.5 Z M -4.15625 10.5 "/></g></g></g><g fill="#000000" fill-opacity="1"><g transform="translate(143.721323, 324.233919)"><g><path d="M -15 19.375 C -15.21875 18.320312 -15.367188 17.410156 -15.453125 16.640625 C -15.535156 15.878906 -15.523438 15.132812 -15.421875 14.40625 C -16.035156 14.6875 -16.710938 14.960938 -17.453125 15.234375 C -18.203125 15.503906 -18.960938 15.703125 -19.734375 15.828125 C -20.503906 15.953125 -21.300781 15.992188 -22.125 15.953125 C -22.945312 15.910156 -23.742188 15.726562 -24.515625 15.40625 C -25.222656 15.113281 -25.851562 14.695312 -26.40625 14.15625 C -26.96875 13.625 -27.378906 12.953125 -27.640625 12.140625 C -27.910156 11.335938 -27.988281 10.359375 -27.875 9.203125 C -27.757812 8.046875 -27.378906 6.703125 -26.734375 5.171875 C -26.566406 4.773438 -26.316406 4.191406 -25.984375 3.421875 C -25.648438 2.660156 -25.289062 1.851562 -24.90625 1 C -24.519531 0.144531 -24.148438 -0.675781 -23.796875 -1.46875 C -23.453125 -2.257812 -23.195312 -2.867188 -23.03125 -3.296875 C -22.632812 -4.234375 -22.316406 -5.160156 -22.078125 -6.078125 C -21.847656 -6.992188 -21.765625 -7.804688 -21.828125 -8.515625 L -15.5 -7.046875 C -15.570312 -6.316406 -15.742188 -5.5625 -16.015625 -4.78125 C -16.285156 -4 -16.539062 -3.320312 -16.78125 -2.75 C -17.113281 -1.957031 -17.476562 -1.144531 -17.875 -0.3125 C -18.269531 0.507812 -18.648438 1.300781 -19.015625 2.0625 C -19.378906 2.820312 -19.726562 3.539062 -20.0625 4.21875 C -20.394531 4.894531 -20.671875 5.492188 -20.890625 6.015625 C -21.585938 7.691406 -21.78125 8.960938 -21.46875 9.828125 C -21.164062 10.691406 -20.515625 11.332031 -19.515625 11.75 C -18.691406 12.09375 -17.875 12.28125 -17.0625 12.3125 C -16.257812 12.34375 -15.519531 12.289062 -14.84375 12.15625 C -14.664062 11.582031 -14.4375 10.96875 -14.15625 10.3125 C -13.882812 9.65625 -13.578125 8.90625 -13.234375 8.0625 C -12.679688 6.757812 -12.1875 5.582031 -11.75 4.53125 C -11.3125 3.476562 -10.910156 2.488281 -10.546875 1.5625 C -10.179688 0.632812 -9.835938 -0.234375 -9.515625 -1.046875 C -9.191406 -1.859375 -8.863281 -2.695312 -8.53125 -3.5625 L -2.765625 -1.15625 C -3.078125 -0.476562 -3.425781 0.273438 -3.8125 1.109375 C -4.195312 1.953125 -4.609375 2.84375 -5.046875 3.78125 C -5.492188 4.71875 -5.941406 5.679688 -6.390625 6.671875 C -6.835938 7.671875 -7.253906 8.640625 -7.640625 9.578125 C -8.109375 10.691406 -8.457031 11.609375 -8.6875 12.328125 C -8.925781 13.046875 -9.070312 13.703125 -9.125 14.296875 C -9.175781 14.890625 -9.148438 15.46875 -9.046875 16.03125 C -8.941406 16.59375 -8.78125 17.253906 -8.5625 18.015625 Z M -15 19.375 "/></g></g></g><g fill="#000000" fill-opacity="1"><g transform="translate(122.362428, 315.145001)"><g><path d="M -11.96875 19.34375 C -12.882812 18.882812 -13.691406 18.617188 -14.390625 18.546875 C -15.097656 18.472656 -15.78125 18.578125 -16.4375 18.859375 C -17.09375 19.148438 -17.765625 19.625 -18.453125 20.28125 C -19.148438 20.945312 -19.953125 21.773438 -20.859375 22.765625 L -25.1875 21.671875 C -24.09375 20.359375 -23.15625 19.175781 -22.375 18.125 C -21.59375 17.070312 -20.84375 16.046875 -20.125 15.046875 L -24.4375 12.546875 L -22.140625 9.359375 L -18.125 12.046875 C -17.09375 10.515625 -16.164062 9.082031 -15.34375 7.75 C -14.53125 6.425781 -13.847656 5.289062 -13.296875 4.34375 C -12.660156 3.238281 -12.1875 2.335938 -11.875 1.640625 C -11.5625 0.953125 -11.375 0.382812 -11.3125 -0.0625 C -11.25 -0.507812 -11.3125 -0.863281 -11.5 -1.125 C -11.6875 -1.382812 -11.976562 -1.628906 -12.375 -1.859375 C -12.914062 -2.171875 -13.476562 -2.398438 -14.0625 -2.546875 C -14.65625 -2.703125 -15.1875 -2.769531 -15.65625 -2.75 L -12.65625 -6.578125 C -11.8125 -6.546875 -11.054688 -6.453125 -10.390625 -6.296875 C -9.734375 -6.140625 -9.015625 -5.835938 -8.234375 -5.390625 C -7.359375 -4.878906 -6.664062 -4.300781 -6.15625 -3.65625 C -5.644531 -3.007812 -5.347656 -2.242188 -5.265625 -1.359375 C -5.191406 -0.484375 -5.335938 0.515625 -5.703125 1.640625 C -6.078125 2.765625 -6.675781 4.046875 -7.5 5.484375 C -8.195312 6.679688 -9.101562 8.113281 -10.21875 9.78125 C -11.34375 11.445312 -12.507812 13.175781 -13.71875 14.96875 L -10.796875 16.65625 Z M -11.96875 19.34375 "/></g></g></g><g fill="#000000" fill-opacity="1"><g transform="translate(110.041776, 308.370341)"><g><path d="M -5.765625 -5.015625 C -4.210938 -3.847656 -3.359375 -2.378906 -3.203125 -0.609375 C -3.054688 1.160156 -3.617188 2.894531 -4.890625 4.59375 C -6.222656 6.375 -7.800781 7.40625 -9.625 7.6875 C -11.445312 7.96875 -13.222656 7.457031 -14.953125 6.15625 C -15.671875 5.625 -16.3125 4.988281 -16.875 4.25 C -17.445312 3.507812 -17.882812 2.75 -18.1875 1.96875 L -19.734375 4.03125 C -20.597656 5.1875 -20.984375 6.164062 -20.890625 6.96875 C -20.796875 7.769531 -20.207031 8.578125 -19.125 9.390625 C -18.382812 9.941406 -17.53125 10.429688 -16.5625 10.859375 C -15.601562 11.296875 -14.773438 11.570312 -14.078125 11.6875 L -15.609375 16.09375 C -16.085938 15.957031 -16.640625 15.765625 -17.265625 15.515625 C -17.890625 15.273438 -18.535156 14.984375 -19.203125 14.640625 C -19.878906 14.296875 -20.546875 13.921875 -21.203125 13.515625 C -21.859375 13.117188 -22.445312 12.726562 -22.96875 12.34375 C -27.300781 9.082031 -27.878906 5.332031 -24.703125 1.09375 C -24.421875 0.71875 -23.992188 0.191406 -23.421875 -0.484375 C -22.847656 -1.160156 -22.25 -1.875 -21.625 -2.625 C -21.007812 -3.382812 -20.429688 -4.082031 -19.890625 -4.71875 C -19.359375 -5.351562 -18.988281 -5.804688 -18.78125 -6.078125 C -18.351562 -6.648438 -18.132812 -7.117188 -18.125 -7.484375 C -18.113281 -7.859375 -18.347656 -8.222656 -18.828125 -8.578125 C -19.140625 -8.816406 -19.539062 -9.039062 -20.03125 -9.25 L -16.78125 -12.359375 C -16.289062 -12.191406 -15.847656 -12.019531 -15.453125 -11.84375 C -15.066406 -11.675781 -14.703125 -11.460938 -14.359375 -11.203125 C -13.441406 -10.515625 -12.867188 -9.679688 -12.640625 -8.703125 C -12.410156 -7.734375 -12.582031 -6.738281 -13.15625 -5.71875 C -11.945312 -6.3125 -10.691406 -6.550781 -9.390625 -6.4375 C -8.085938 -6.320312 -6.878906 -5.847656 -5.765625 -5.015625 Z M -10.09375 -2.953125 C -10.882812 -3.546875 -11.769531 -3.765625 -12.75 -3.609375 C -13.726562 -3.460938 -14.539062 -2.957031 -15.1875 -2.09375 C -15.738281 -1.351562 -15.957031 -0.597656 -15.84375 0.171875 C -15.726562 0.953125 -15.28125 1.632812 -14.5 2.21875 C -13.6875 2.832031 -12.859375 3.066406 -12.015625 2.921875 C -11.179688 2.785156 -10.441406 2.289062 -9.796875 1.4375 C -9.179688 0.613281 -8.894531 -0.1875 -8.9375 -0.96875 C -8.988281 -1.757812 -9.375 -2.421875 -10.09375 -2.953125 Z M -10.09375 -2.953125 "/></g></g></g><g fill="#000000" fill-opacity="1"><g transform="translate(93.875481, 296.348378)"><g><path d="M -8.203125 6 C -9.828125 7.644531 -11.421875 8.894531 -12.984375 9.75 C -14.546875 10.613281 -16.050781 11.117188 -17.5 11.265625 C -18.945312 11.421875 -20.304688 11.253906 -21.578125 10.765625 C -22.859375 10.285156 -24.023438 9.523438 -25.078125 8.484375 C -25.753906 7.804688 -26.253906 7.1875 -26.578125 6.625 C -26.910156 6.0625 -27.351562 5.507812 -27.90625 4.96875 C -28.144531 4.726562 -28.394531 4.523438 -28.65625 4.359375 C -28.925781 4.191406 -29.347656 3.957031 -29.921875 3.65625 L -23.984375 -3.09375 L -20.328125 -0.328125 C -20.578125 -0.128906 -20.796875 0.0507812 -20.984375 0.21875 C -21.179688 0.382812 -21.390625 0.582031 -21.609375 0.8125 C -22.796875 2.007812 -23.425781 3.078125 -23.5 4.015625 C -23.582031 4.960938 -23.382812 5.675781 -22.90625 6.15625 C -21.851562 7.1875 -20.53125 7.40625 -18.9375 6.8125 C -17.351562 6.21875 -15.515625 4.859375 -13.421875 2.734375 C -11.640625 0.929688 -10.648438 -0.644531 -10.453125 -2 C -10.253906 -3.363281 -10.710938 -4.597656 -11.828125 -5.703125 C -12.597656 -6.460938 -13.492188 -7.078125 -14.515625 -7.546875 C -15.546875 -8.023438 -16.460938 -8.421875 -17.265625 -8.734375 L -14.40625 -11.640625 C -13.09375 -11.585938 -11.820312 -11.203125 -10.59375 -10.484375 C -9.363281 -9.773438 -8.242188 -8.921875 -7.234375 -7.921875 C -6.421875 -7.117188 -5.722656 -6.234375 -5.140625 -5.265625 C -4.566406 -4.304688 -4.242188 -3.257812 -4.171875 -2.125 C -4.097656 -0.988281 -4.359375 0.25 -4.953125 1.59375 C -5.554688 2.945312 -6.640625 4.414062 -8.203125 6 Z M -8.203125 6 "/></g></g></g><g fill="#000000" fill-opacity="1"><g transform="translate(80.414406, 283.00089)"><g><path d="M -18.171875 13.703125 C -18.847656 12.929688 -19.5 12.382812 -20.125 12.0625 C -20.757812 11.75 -21.429688 11.609375 -22.140625 11.640625 C -22.859375 11.671875 -23.660156 11.867188 -24.546875 12.234375 C -25.441406 12.597656 -26.484375 13.078125 -27.671875 13.671875 L -31.328125 11.09375 C -29.835938 10.25 -28.535156 9.484375 -27.421875 8.796875 C -26.316406 8.109375 -25.242188 7.425781 -24.203125 6.75 L -27.328125 2.875 L -24.03125 0.734375 L -21.25 4.671875 C -19.726562 3.609375 -18.347656 2.609375 -17.109375 1.671875 C -15.867188 0.734375 -14.816406 -0.078125 -13.953125 -0.765625 C -12.960938 -1.566406 -12.195312 -2.226562 -11.65625 -2.75 C -11.113281 -3.28125 -10.734375 -3.742188 -10.515625 -4.140625 C -10.304688 -4.535156 -10.238281 -4.890625 -10.3125 -5.203125 C -10.394531 -5.523438 -10.578125 -5.863281 -10.859375 -6.21875 C -11.253906 -6.707031 -11.695312 -7.125 -12.1875 -7.46875 C -12.675781 -7.820312 -13.144531 -8.078125 -13.59375 -8.234375 L -9.40625 -10.6875 C -8.632812 -10.363281 -7.96875 -10.007812 -7.40625 -9.625 C -6.851562 -9.25 -6.296875 -8.710938 -5.734375 -8.015625 C -5.097656 -7.222656 -4.660156 -6.429688 -4.421875 -5.640625 C -4.179688 -4.847656 -4.179688 -4.023438 -4.421875 -3.171875 C -4.671875 -2.328125 -5.164062 -1.445312 -5.90625 -0.53125 C -6.65625 0.382812 -7.675781 1.359375 -8.96875 2.390625 C -10.050781 3.265625 -11.414062 4.273438 -13.0625 5.421875 C -14.707031 6.578125 -16.425781 7.765625 -18.21875 8.984375 L -16.109375 11.609375 Z M -18.171875 13.703125 "/></g></g></g><g fill="#000000" fill-opacity="1"><g transform="translate(71.303963, 271.532177)"><g/></g></g><g fill="#000000" fill-opacity="1"><g transform="translate(66.236799, 265.529773)"><g><path d="M -14.3125 -3.203125 C -13.125 -3.796875 -12.1875 -4.460938 -11.5 -5.203125 C -10.8125 -5.941406 -10.335938 -6.710938 -10.078125 -7.515625 C -9.816406 -8.328125 -9.734375 -9.140625 -9.828125 -9.953125 C -9.921875 -10.765625 -10.144531 -11.53125 -10.5 -12.25 C -10.800781 -12.851562 -11.242188 -13.414062 -11.828125 -13.9375 C -12.410156 -14.457031 -13.101562 -14.851562 -13.90625 -15.125 C -14.71875 -15.40625 -15.628906 -15.515625 -16.640625 -15.453125 C -17.648438 -15.398438 -18.738281 -15.101562 -19.90625 -14.5625 C -20.75 -14.175781 -21.671875 -13.738281 -22.671875 -13.25 C -23.671875 -12.757812 -24.953125 -12.117188 -26.515625 -11.328125 C -28.492188 -10.328125 -30.445312 -9.328125 -32.375 -8.328125 C -34.300781 -7.328125 -36.273438 -6.265625 -38.296875 -5.140625 L -41.6875 -10.828125 C -40.8125 -11.160156 -39.929688 -11.519531 -39.046875 -11.90625 C -38.160156 -12.300781 -37.195312 -12.753906 -36.15625 -13.265625 C -35.125 -13.773438 -33.960938 -14.347656 -32.671875 -14.984375 C -31.390625 -15.617188 -29.921875 -16.351562 -28.265625 -17.1875 L -22.90625 -19.875 C -21.195312 -20.738281 -19.519531 -21.191406 -17.875 -21.234375 C -16.226562 -21.285156 -14.679688 -21.03125 -13.234375 -20.46875 C -11.796875 -19.90625 -10.488281 -19.054688 -9.3125 -17.921875 C -8.144531 -16.796875 -7.179688 -15.472656 -6.421875 -13.953125 C -5.648438 -12.429688 -5.175781 -10.882812 -5 -9.3125 C -4.832031 -7.75 -4.960938 -6.242188 -5.390625 -4.796875 C -5.816406 -3.359375 -6.554688 -2.019531 -7.609375 -0.78125 C -8.671875 0.445312 -10.039062 1.488281 -11.71875 2.34375 C -12.507812 2.738281 -13.410156 3.171875 -14.421875 3.640625 C -15.441406 4.117188 -16.65625 4.710938 -18.0625 5.421875 C -20.039062 6.421875 -21.992188 7.421875 -23.921875 8.421875 C -25.859375 9.429688 -27.835938 10.5 -29.859375 11.625 L -33.25 5.9375 C -32.375 5.601562 -31.492188 5.238281 -30.609375 4.84375 C -29.722656 4.445312 -28.757812 4 -27.71875 3.5 C -26.675781 3.007812 -25.515625 2.441406 -24.234375 1.796875 C -22.953125 1.148438 -21.484375 0.410156 -19.828125 -0.421875 Z M -14.3125 -3.203125 "/></g></g></g><g fill="#000000" fill-opacity="1"><g transform="translate(53.543152, 239.621929)"><g><path d="M -7.03125 -7.6875 C -7.300781 -8.507812 -7.648438 -9.046875 -8.078125 -9.296875 C -8.515625 -9.546875 -9.023438 -9.578125 -9.609375 -9.390625 C -9.992188 -9.265625 -10.296875 -9.09375 -10.515625 -8.875 C -10.742188 -8.664062 -10.910156 -8.382812 -11.015625 -8.03125 C -11.128906 -7.6875 -11.210938 -7.265625 -11.265625 -6.765625 C -11.316406 -6.265625 -11.363281 -5.671875 -11.40625 -4.984375 C -11.4375 -4.191406 -11.5 -3.382812 -11.59375 -2.5625 C -11.6875 -1.738281 -11.890625 -0.957031 -12.203125 -0.21875 C -12.523438 0.507812 -13.023438 1.175781 -13.703125 1.78125 C -14.378906 2.394531 -15.320312 2.894531 -16.53125 3.28125 C -17.9375 3.726562 -19.160156 3.816406 -20.203125 3.546875 C -21.242188 3.273438 -22.125 2.820312 -22.84375 2.1875 C -23.5625 1.550781 -24.144531 0.804688 -24.59375 -0.046875 C -25.050781 -0.910156 -25.398438 -1.726562 -25.640625 -2.5 C -25.910156 -3.34375 -26.132812 -4.285156 -26.3125 -5.328125 C -26.5 -6.378906 -26.566406 -7.285156 -26.515625 -8.046875 L -21.859375 -9.546875 C -21.859375 -8.984375 -21.835938 -8.398438 -21.796875 -7.796875 C -21.753906 -7.191406 -21.691406 -6.613281 -21.609375 -6.0625 C -21.523438 -5.507812 -21.429688 -4.988281 -21.328125 -4.5 C -21.222656 -4.019531 -21.125 -3.632812 -21.03125 -3.34375 C -20.425781 -1.46875 -19.476562 -0.738281 -18.1875 -1.15625 C -17.269531 -1.445312 -16.71875 -2.078125 -16.53125 -3.046875 C -16.34375 -4.015625 -16.222656 -5.171875 -16.171875 -6.515625 C -16.140625 -7.328125 -16.054688 -8.109375 -15.921875 -8.859375 C -15.796875 -9.617188 -15.550781 -10.320312 -15.1875 -10.96875 C -14.832031 -11.613281 -14.320312 -12.195312 -13.65625 -12.71875 C -12.988281 -13.25 -12.109375 -13.691406 -11.015625 -14.046875 C -8.796875 -14.753906 -6.972656 -14.65625 -5.546875 -13.75 C -4.117188 -12.851562 -3.09375 -11.421875 -2.46875 -9.453125 C -2.125 -8.398438 -1.894531 -7.191406 -1.78125 -5.828125 C -1.664062 -4.472656 -1.722656 -3.082031 -1.953125 -1.65625 L -6.859375 0.109375 C -6.710938 -0.359375 -6.609375 -0.921875 -6.546875 -1.578125 C -6.492188 -2.242188 -6.476562 -2.945312 -6.5 -3.6875 C -6.519531 -4.425781 -6.570312 -5.144531 -6.65625 -5.84375 C -6.738281 -6.539062 -6.863281 -7.15625 -7.03125 -7.6875 Z M -7.03125 -7.6875 "/></g></g></g><g fill="#000000" fill-opacity="1"><g transform="translate(48.361273, 224.055492)"><g><path d="M -12.390625 -15.203125 C -12.285156 -14.472656 -12.179688 -13.816406 -12.078125 -13.234375 C -11.984375 -12.660156 -11.890625 -12.097656 -11.796875 -11.546875 C -11.710938 -11.003906 -11.617188 -10.441406 -11.515625 -9.859375 C -11.421875 -9.285156 -11.304688 -8.640625 -11.171875 -7.921875 C -11.023438 -7.191406 -10.890625 -6.539062 -10.765625 -5.96875 C -10.640625 -5.40625 -10.515625 -4.847656 -10.390625 -4.296875 C -10.273438 -3.753906 -10.15625 -3.195312 -10.03125 -2.625 C -9.914062 -2.0625 -9.769531 -1.414062 -9.59375 -0.6875 L -13.8125 -0.125 C -13.925781 -0.851562 -14.019531 -1.503906 -14.09375 -2.078125 C -14.175781 -2.660156 -14.265625 -3.222656 -14.359375 -3.765625 C -14.453125 -4.316406 -14.550781 -4.878906 -14.65625 -5.453125 C -14.769531 -6.035156 -14.898438 -6.6875 -15.046875 -7.40625 C -15.179688 -8.132812 -15.300781 -8.785156 -15.40625 -9.359375 C -15.519531 -9.929688 -15.632812 -10.488281 -15.75 -11.03125 C -15.875 -11.570312 -16.003906 -12.132812 -16.140625 -12.71875 C -16.285156 -13.300781 -16.445312 -13.957031 -16.625 -14.6875 Z M -12.390625 -15.203125 "/></g></g></g><g fill="#000000" fill-opacity="1"><g transform="translate(45.020424, 205.811349)"><g/></g></g><g fill="#000000" fill-opacity="1"><g transform="translate(43.606497, 197.94937)"><g><path d="M -14.796875 -2.25 C -20.890625 -2.382812 -25.394531 -3.722656 -28.3125 -6.265625 C -31.238281 -8.804688 -32.65625 -12.34375 -32.5625 -16.875 C -32.53125 -18.257812 -32.414062 -19.40625 -32.21875 -20.3125 C -32.019531 -21.21875 -31.910156 -22.054688 -31.890625 -22.828125 C -31.878906 -23.347656 -31.910156 -23.867188 -31.984375 -24.390625 C -32.066406 -24.921875 -32.179688 -25.484375 -32.328125 -26.078125 L -20.578125 -26.328125 L -20.078125 -21.140625 C -20.546875 -21.179688 -20.988281 -21.210938 -21.40625 -21.234375 C -21.820312 -21.253906 -22.210938 -21.269531 -22.578125 -21.28125 C -24.484375 -21.320312 -25.96875 -21.015625 -27.03125 -20.359375 C -28.101562 -19.703125 -28.65625 -18.492188 -28.6875 -16.734375 C -28.800781 -11.316406 -24.523438 -8.519531 -15.859375 -8.34375 C -13.796875 -8.300781 -12.035156 -8.441406 -10.578125 -8.765625 C -9.128906 -9.085938 -7.941406 -9.59375 -7.015625 -10.28125 C -6.097656 -10.96875 -5.421875 -11.835938 -4.984375 -12.890625 C -4.546875 -13.941406 -4.3125 -15.160156 -4.28125 -16.546875 C -4.25 -18.054688 -4.441406 -19.554688 -4.859375 -21.046875 C -5.273438 -22.535156 -5.726562 -23.976562 -6.21875 -25.375 L -1.3125 -25.265625 C -0.457031 -23.867188 0.125 -22.238281 0.4375 -20.375 C 0.757812 -18.519531 0.898438 -16.726562 0.859375 -15 C 0.828125 -13.28125 0.601562 -11.628906 0.1875 -10.046875 C -0.226562 -8.472656 -1.007812 -7.09375 -2.15625 -5.90625 C -3.300781 -4.726562 -4.882812 -3.804688 -6.90625 -3.140625 C -8.925781 -2.484375 -11.554688 -2.1875 -14.796875 -2.25 Z M -14.796875 -2.25 "/></g></g></g><g fill="#000000" fill-opacity="1"><g transform="translate(44.090518, 172.641804)"><g><path d="M -17.34375 -15.5 C -17.601562 -14.070312 -17.050781 -12.835938 -15.6875 -11.796875 C -14.320312 -10.765625 -12.34375 -10.007812 -9.75 -9.53125 C -7.195312 -9.050781 -5.160156 -8.988281 -3.640625 -9.34375 C -2.117188 -9.707031 -1.21875 -10.660156 -0.9375 -12.203125 C -0.664062 -13.628906 -1.234375 -14.878906 -2.640625 -15.953125 C -4.054688 -17.023438 -6.066406 -17.804688 -8.671875 -18.296875 C -9.890625 -18.523438 -10.992188 -18.664062 -11.984375 -18.71875 C -12.972656 -18.78125 -13.835938 -18.71875 -14.578125 -18.53125 C -15.328125 -18.34375 -15.9375 -18.003906 -16.40625 -17.515625 C -16.875 -17.023438 -17.1875 -16.351562 -17.34375 -15.5 Z M -10.71875 -3.546875 C -12.59375 -3.890625 -14.238281 -4.457031 -15.65625 -5.25 C -17.082031 -6.050781 -18.238281 -7.015625 -19.125 -8.140625 C -20.007812 -9.265625 -20.613281 -10.546875 -20.9375 -11.984375 C -21.257812 -13.421875 -21.269531 -14.960938 -20.96875 -16.609375 C -20.394531 -19.679688 -18.96875 -21.894531 -16.6875 -23.25 C -14.40625 -24.601562 -11.492188 -24.945312 -7.953125 -24.28125 C -6.046875 -23.925781 -4.363281 -23.347656 -2.90625 -22.546875 C -1.457031 -21.742188 -0.269531 -20.769531 0.65625 -19.625 C 1.582031 -18.488281 2.21875 -17.203125 2.5625 -15.765625 C 2.90625 -14.335938 2.929688 -12.828125 2.640625 -11.234375 C 2.359375 -9.710938 1.832031 -8.394531 1.0625 -7.28125 C 0.289062 -6.164062 -0.671875 -5.273438 -1.828125 -4.609375 C -2.984375 -3.953125 -4.3125 -3.523438 -5.8125 -3.328125 C -7.320312 -3.140625 -8.957031 -3.210938 -10.71875 -3.546875 Z M -10.71875 -3.546875 "/></g></g></g><g fill="#000000" fill-opacity="1"><g transform="translate(47.799551, 151.396794)"><g><path d="M -20.203125 -13.875 C -19.160156 -14.15625 -18.253906 -14.351562 -17.484375 -14.46875 C -16.722656 -14.59375 -15.976562 -14.628906 -15.25 -14.578125 C -15.570312 -15.171875 -15.882812 -15.832031 -16.1875 -16.5625 C -16.5 -17.300781 -16.738281 -18.050781 -16.90625 -18.8125 C -17.082031 -19.570312 -17.171875 -20.363281 -17.171875 -21.1875 C -17.179688 -22.007812 -17.050781 -22.8125 -16.78125 -23.59375 C -16.519531 -24.320312 -16.140625 -24.976562 -15.640625 -25.5625 C -15.140625 -26.15625 -14.492188 -26.601562 -13.703125 -26.90625 C -12.910156 -27.21875 -11.929688 -27.347656 -10.765625 -27.296875 C -9.609375 -27.253906 -8.242188 -26.957031 -6.671875 -26.40625 C -6.273438 -26.257812 -5.6875 -26.039062 -4.90625 -25.75 C -4.125 -25.457031 -3.296875 -25.144531 -2.421875 -24.8125 C -1.546875 -24.476562 -0.703125 -24.15625 0.109375 -23.84375 C 0.921875 -23.539062 1.539062 -23.316406 1.96875 -23.171875 C 2.9375 -22.828125 3.882812 -22.566406 4.8125 -22.390625 C 5.738281 -22.210938 6.554688 -22.179688 7.265625 -22.296875 L 6.15625 -15.859375 C 5.414062 -15.890625 4.644531 -16.019531 3.84375 -16.25 C 3.050781 -16.488281 2.363281 -16.707031 1.78125 -16.90625 C 0.96875 -17.195312 0.140625 -17.515625 -0.703125 -17.859375 C -1.546875 -18.203125 -2.359375 -18.535156 -3.140625 -18.859375 C -3.921875 -19.191406 -4.660156 -19.503906 -5.359375 -19.796875 C -6.054688 -20.085938 -6.671875 -20.328125 -7.203125 -20.515625 C -8.910156 -21.117188 -10.179688 -21.238281 -11.015625 -20.875 C -11.859375 -20.519531 -12.457031 -19.835938 -12.8125 -18.828125 C -13.113281 -17.984375 -13.257812 -17.15625 -13.25 -16.34375 C -13.238281 -15.539062 -13.144531 -14.796875 -12.96875 -14.109375 C -12.382812 -13.984375 -11.757812 -13.800781 -11.09375 -13.5625 C -10.425781 -13.320312 -9.660156 -13.050781 -8.796875 -12.75 C -7.453125 -12.28125 -6.242188 -11.851562 -5.171875 -11.46875 C -4.097656 -11.09375 -3.09375 -10.75 -2.15625 -10.4375 C -1.21875 -10.125 -0.335938 -9.832031 0.484375 -9.5625 C 1.316406 -9.289062 2.175781 -9.007812 3.0625 -8.71875 L 1 -2.828125 C 0.3125 -3.109375 -0.457031 -3.414062 -1.3125 -3.75 C -2.175781 -4.082031 -3.085938 -4.441406 -4.046875 -4.828125 C -5.015625 -5.210938 -6.007812 -5.601562 -7.03125 -6 C -8.050781 -6.394531 -9.035156 -6.757812 -9.984375 -7.09375 C -11.128906 -7.5 -12.066406 -7.796875 -12.796875 -7.984375 C -13.523438 -8.171875 -14.1875 -8.269531 -14.78125 -8.28125 C -15.382812 -8.300781 -15.960938 -8.242188 -16.515625 -8.109375 C -17.078125 -7.984375 -17.726562 -7.785156 -18.46875 -7.515625 Z M -20.203125 -13.875 "/></g></g></g><g fill="#000000" fill-opacity="1"><g transform="translate(55.665817, 129.554589)"><g><path d="M -19.984375 -10.859375 C -19.578125 -11.804688 -19.359375 -12.628906 -19.328125 -13.328125 C -19.296875 -14.035156 -19.441406 -14.703125 -19.765625 -15.328125 C -20.085938 -15.960938 -20.597656 -16.609375 -21.296875 -17.265625 C -21.992188 -17.929688 -22.863281 -18.6875 -23.90625 -19.53125 L -23.0625 -23.921875 C -21.6875 -22.910156 -20.453125 -22.046875 -19.359375 -21.328125 C -18.273438 -20.609375 -17.210938 -19.914062 -16.171875 -19.25 L -13.921875 -23.703125 L -10.609375 -21.578125 L -13.046875 -17.421875 C -11.460938 -16.472656 -9.984375 -15.628906 -8.609375 -14.890625 C -7.234375 -14.148438 -6.050781 -13.53125 -5.0625 -13.03125 C -3.9375 -12.457031 -3.019531 -12.03125 -2.3125 -11.75 C -1.601562 -11.476562 -1.023438 -11.328125 -0.578125 -11.296875 C -0.128906 -11.265625 0.21875 -11.347656 0.46875 -11.546875 C 0.71875 -11.742188 0.945312 -12.046875 1.15625 -12.453125 C 1.4375 -13.015625 1.632812 -13.59375 1.75 -14.1875 C 1.863281 -14.78125 1.894531 -15.304688 1.84375 -15.765625 L 5.84375 -12.984375 C 5.863281 -12.148438 5.816406 -11.398438 5.703125 -10.734375 C 5.585938 -10.066406 5.328125 -9.332031 4.921875 -8.53125 C 4.460938 -7.625 3.925781 -6.898438 3.3125 -6.359375 C 2.695312 -5.816406 1.945312 -5.476562 1.0625 -5.34375 C 0.175781 -5.207031 -0.832031 -5.289062 -1.96875 -5.59375 C -3.113281 -5.90625 -4.425781 -6.429688 -5.90625 -7.171875 C -7.132812 -7.796875 -8.613281 -8.617188 -10.34375 -9.640625 C -12.070312 -10.671875 -13.863281 -11.742188 -15.71875 -12.859375 L -17.25 -9.84375 Z M -19.984375 -10.859375 "/></g></g></g><g fill="#000000" fill-opacity="1"><g transform="translate(61.731518, 116.869624)"><g><path d="M 4.671875 -6.046875 C 3.597656 -4.429688 2.179688 -3.492188 0.421875 -3.234375 C -1.328125 -2.984375 -3.085938 -3.445312 -4.859375 -4.625 C -6.703125 -5.863281 -7.816406 -7.382812 -8.203125 -9.1875 C -8.597656 -10.988281 -8.195312 -12.785156 -7 -14.578125 C -6.5 -15.328125 -5.898438 -16.003906 -5.203125 -16.609375 C -4.503906 -17.222656 -3.765625 -17.703125 -2.984375 -18.046875 L -5.125 -19.46875 C -6.332031 -20.269531 -7.332031 -20.601562 -8.125 -20.46875 C -8.925781 -20.332031 -9.703125 -19.695312 -10.453125 -18.5625 C -10.972656 -17.789062 -11.421875 -16.910156 -11.796875 -15.921875 C -12.179688 -14.929688 -12.398438 -14.085938 -12.453125 -13.390625 L -16.9375 -14.671875 C -16.832031 -15.160156 -16.679688 -15.722656 -16.484375 -16.359375 C -16.285156 -16.992188 -16.03125 -17.65625 -15.71875 -18.34375 C -15.40625 -19.03125 -15.066406 -19.710938 -14.703125 -20.390625 C -14.335938 -21.078125 -13.972656 -21.6875 -13.609375 -22.21875 C -10.609375 -26.738281 -6.90625 -27.535156 -2.5 -24.609375 C -2.113281 -24.347656 -1.5625 -23.953125 -0.84375 -23.421875 C -0.132812 -22.890625 0.609375 -22.332031 1.390625 -21.75 C 2.179688 -21.164062 2.90625 -20.625 3.5625 -20.125 C 4.226562 -19.632812 4.707031 -19.296875 5 -19.109375 C 5.59375 -18.710938 6.078125 -18.515625 6.453125 -18.515625 C 6.828125 -18.523438 7.179688 -18.773438 7.515625 -19.265625 C 7.734375 -19.597656 7.929688 -20.015625 8.109375 -20.515625 L 11.390625 -17.453125 C 11.242188 -16.953125 11.09375 -16.503906 10.9375 -16.109375 C 10.789062 -15.710938 10.597656 -15.332031 10.359375 -14.96875 C 9.722656 -14.019531 8.925781 -13.398438 7.96875 -13.109375 C 7.019531 -12.828125 6.019531 -12.941406 4.96875 -13.453125 C 5.613281 -12.273438 5.914062 -11.035156 5.875 -9.734375 C 5.84375 -8.429688 5.441406 -7.203125 4.671875 -6.046875 Z M 2.375 -10.234375 C 2.925781 -11.054688 3.097656 -11.953125 2.890625 -12.921875 C 2.691406 -13.898438 2.144531 -14.6875 1.25 -15.28125 C 0.476562 -15.789062 -0.289062 -15.96875 -1.0625 -15.8125 C -1.832031 -15.65625 -2.488281 -15.171875 -3.03125 -14.359375 C -3.59375 -13.503906 -3.78125 -12.664062 -3.59375 -11.84375 C -3.40625 -11.019531 -2.867188 -10.304688 -1.984375 -9.703125 C -1.128906 -9.140625 -0.3125 -8.898438 0.46875 -8.984375 C 1.25 -9.078125 1.882812 -9.492188 2.375 -10.234375 Z M 2.375 -10.234375 "/></g></g></g><g fill="#000000" fill-opacity="1"><g transform="translate(72.815209, 100.050894)"><g><path d="M -6.453125 -7.859375 C -8.179688 -9.378906 -9.519531 -10.894531 -10.46875 -12.40625 C -11.414062 -13.914062 -12.003906 -15.390625 -12.234375 -16.828125 C -12.460938 -18.265625 -12.375 -19.632812 -11.96875 -20.9375 C -11.5625 -22.238281 -10.867188 -23.441406 -9.890625 -24.546875 C -9.265625 -25.265625 -8.679688 -25.804688 -8.140625 -26.171875 C -7.597656 -26.535156 -7.070312 -27.003906 -6.5625 -27.578125 C -6.332031 -27.835938 -6.140625 -28.101562 -5.984375 -28.375 C -5.828125 -28.644531 -5.613281 -29.078125 -5.34375 -29.671875 L 1.71875 -24.109375 L -0.8125 -20.328125 C -1.03125 -20.546875 -1.226562 -20.742188 -1.40625 -20.921875 C -1.59375 -21.109375 -1.804688 -21.304688 -2.046875 -21.515625 C -3.304688 -22.628906 -4.40625 -23.195312 -5.34375 -23.21875 C -6.289062 -23.25 -6.988281 -23.015625 -7.4375 -22.515625 C -8.414062 -21.398438 -8.5625 -20.066406 -7.875 -18.515625 C -7.1875 -16.972656 -5.722656 -15.210938 -3.484375 -13.234375 C -1.585938 -11.566406 0.046875 -10.671875 1.421875 -10.546875 C 2.796875 -10.429688 4 -10.960938 5.03125 -12.140625 C 5.75 -12.941406 6.3125 -13.867188 6.71875 -14.921875 C 7.125 -15.972656 7.46875 -16.914062 7.75 -17.75 L 10.796875 -15.046875 C 10.816406 -13.734375 10.503906 -12.441406 9.859375 -11.171875 C 9.222656 -9.910156 8.4375 -8.75 7.5 -7.6875 C 6.75 -6.832031 5.90625 -6.082031 4.96875 -5.4375 C 4.039062 -4.800781 3.015625 -4.414062 1.890625 -4.28125 C 0.765625 -4.144531 -0.488281 -4.335938 -1.875 -4.859375 C -3.257812 -5.390625 -4.785156 -6.390625 -6.453125 -7.859375 Z M -6.453125 -7.859375 "/></g></g></g><g fill="#000000" fill-opacity="1"><g transform="translate(85.380945, 85.852296)"><g><path d="M -14.703125 -17.34375 C -13.984375 -18.082031 -13.476562 -18.773438 -13.1875 -19.421875 C -12.90625 -20.066406 -12.800781 -20.742188 -12.875 -21.453125 C -12.957031 -22.160156 -13.203125 -22.945312 -13.609375 -23.8125 C -14.015625 -24.6875 -14.550781 -25.703125 -15.21875 -26.859375 L -12.859375 -30.640625 C -11.929688 -29.203125 -11.09375 -27.953125 -10.34375 -26.890625 C -9.59375 -25.828125 -8.851562 -24.796875 -8.125 -23.796875 L -4.40625 -27.125 L -2.09375 -23.953125 L -5.875 -20.9375 C -4.738281 -19.488281 -3.664062 -18.171875 -2.65625 -16.984375 C -1.644531 -15.804688 -0.769531 -14.804688 -0.03125 -13.984375 C 0.820312 -13.035156 1.53125 -12.304688 2.09375 -11.796875 C 2.65625 -11.285156 3.140625 -10.929688 3.546875 -10.734375 C 3.953125 -10.546875 4.304688 -10.5 4.609375 -10.59375 C 4.921875 -10.6875 5.25 -10.882812 5.59375 -11.1875 C 6.050781 -11.613281 6.441406 -12.082031 6.765625 -12.59375 C 7.085938 -13.113281 7.3125 -13.59375 7.4375 -14.03125 L 10.15625 -10 C 9.863281 -9.207031 9.539062 -8.519531 9.1875 -7.9375 C 8.84375 -7.363281 8.335938 -6.78125 7.671875 -6.1875 C 6.910156 -5.5 6.144531 -5.015625 5.375 -4.734375 C 4.601562 -4.453125 3.785156 -4.40625 2.921875 -4.59375 C 2.054688 -4.789062 1.144531 -5.238281 0.1875 -5.9375 C -0.769531 -6.632812 -1.800781 -7.597656 -2.90625 -8.828125 C -3.832031 -9.859375 -4.914062 -11.160156 -6.15625 -12.734375 C -7.394531 -14.316406 -8.675781 -15.960938 -10 -17.671875 L -12.515625 -15.40625 Z M -14.703125 -17.34375 "/></g></g></g><g fill="#000000" fill-opacity="1"><g transform="translate(96.316803, 76.10452)"><g/></g></g><g fill="#000000" fill-opacity="1"><g transform="translate(102.018629, 70.709341)"><g><path d="M 2.390625 -14.453125 C 3.046875 -13.304688 3.765625 -12.410156 4.546875 -11.765625 C 5.328125 -11.128906 6.125 -10.703125 6.9375 -10.484375 C 7.757812 -10.273438 8.570312 -10.238281 9.375 -10.375 C 10.1875 -10.519531 10.941406 -10.789062 11.640625 -11.1875 C 12.222656 -11.53125 12.753906 -12.003906 13.234375 -12.609375 C 13.722656 -13.210938 14.085938 -13.925781 14.328125 -14.75 C 14.566406 -15.570312 14.625 -16.484375 14.5 -17.484375 C 14.382812 -18.492188 14.019531 -19.566406 13.40625 -20.703125 C 12.96875 -21.523438 12.476562 -22.414062 11.9375 -23.375 C 11.394531 -24.34375 10.6875 -25.585938 9.8125 -27.109375 C 8.695312 -29.023438 7.582031 -30.914062 6.46875 -32.78125 C 5.363281 -34.65625 4.191406 -36.570312 2.953125 -38.53125 L 8.453125 -42.234375 C 8.835938 -41.378906 9.25 -40.519531 9.6875 -39.65625 C 10.132812 -38.800781 10.632812 -37.863281 11.1875 -36.84375 C 11.75 -35.832031 12.382812 -34.703125 13.09375 -33.453125 C 13.8125 -32.210938 14.632812 -30.789062 15.5625 -29.1875 L 18.5625 -23.984375 C 19.519531 -22.328125 20.066406 -20.675781 20.203125 -19.03125 C 20.347656 -17.382812 20.175781 -15.828125 19.6875 -14.359375 C 19.207031 -12.898438 18.429688 -11.550781 17.359375 -10.3125 C 16.296875 -9.082031 15.03125 -8.046875 13.5625 -7.203125 C 12.082031 -6.347656 10.566406 -5.785156 9.015625 -5.515625 C 7.460938 -5.253906 5.957031 -5.296875 4.5 -5.640625 C 3.039062 -5.992188 1.660156 -6.660156 0.359375 -7.640625 C -0.929688 -8.628906 -2.046875 -9.9375 -2.984375 -11.5625 C -3.429688 -12.332031 -3.921875 -13.210938 -4.453125 -14.203125 C -4.992188 -15.191406 -5.65625 -16.367188 -6.4375 -17.734375 C -7.550781 -19.648438 -8.660156 -21.539062 -9.765625 -23.40625 C -10.878906 -25.28125 -12.054688 -27.191406 -13.296875 -29.140625 L -7.8125 -32.859375 C -7.414062 -32.003906 -6.992188 -31.144531 -6.546875 -30.28125 C -6.109375 -29.425781 -5.613281 -28.488281 -5.0625 -27.46875 C -4.519531 -26.445312 -3.890625 -25.316406 -3.171875 -24.078125 C -2.453125 -22.835938 -1.628906 -21.414062 -0.703125 -19.8125 Z M 2.390625 -14.453125 "/></g></g></g><g fill="#000000" fill-opacity="1"><g transform="translate(127.167848, 56.565268)"><g><path d="M 7.28125 -7.453125 C 8.082031 -7.765625 8.59375 -8.144531 8.8125 -8.59375 C 9.039062 -9.039062 9.046875 -9.550781 8.828125 -10.125 C 8.679688 -10.507812 8.492188 -10.804688 8.265625 -11.015625 C 8.035156 -11.222656 7.742188 -11.367188 7.390625 -11.453125 C 7.046875 -11.546875 6.625 -11.609375 6.125 -11.640625 C 5.625 -11.671875 5.023438 -11.679688 4.328125 -11.671875 C 3.546875 -11.660156 2.738281 -11.675781 1.90625 -11.71875 C 1.070312 -11.769531 0.28125 -11.929688 -0.46875 -12.203125 C -1.21875 -12.472656 -1.910156 -12.929688 -2.546875 -13.578125 C -3.191406 -14.234375 -3.742188 -15.144531 -4.203125 -16.3125 C -4.734375 -17.695312 -4.894531 -18.910156 -4.6875 -19.953125 C -4.476562 -21.003906 -4.078125 -21.910156 -3.484375 -22.671875 C -2.890625 -23.429688 -2.175781 -24.0625 -1.34375 -24.5625 C -0.507812 -25.0625 0.28125 -25.457031 1.03125 -25.75 C 1.863281 -26.070312 2.796875 -26.347656 3.828125 -26.578125 C 4.859375 -26.816406 5.757812 -26.9375 6.53125 -26.9375 L 8.296875 -22.375 C 7.722656 -22.332031 7.140625 -22.273438 6.546875 -22.203125 C 5.953125 -22.128906 5.378906 -22.035156 4.828125 -21.921875 C 4.273438 -21.804688 3.757812 -21.679688 3.28125 -21.546875 C 2.8125 -21.421875 2.429688 -21.300781 2.140625 -21.1875 C 0.304688 -20.476562 -0.363281 -19.488281 0.125 -18.21875 C 0.46875 -17.332031 1.125 -16.820312 2.09375 -16.6875 C 3.070312 -16.550781 4.234375 -16.492188 5.578125 -16.515625 C 6.390625 -16.523438 7.175781 -16.488281 7.9375 -16.40625 C 8.707031 -16.320312 9.425781 -16.117188 10.09375 -15.796875 C 10.757812 -15.484375 11.367188 -15.003906 11.921875 -14.359375 C 12.484375 -13.710938 12.972656 -12.859375 13.390625 -11.796875 C 14.222656 -9.617188 14.226562 -7.789062 13.40625 -6.3125 C 12.59375 -4.832031 11.222656 -3.722656 9.296875 -2.984375 C 8.265625 -2.585938 7.070312 -2.296875 5.71875 -2.109375 C 4.363281 -1.921875 2.972656 -1.894531 1.546875 -2.03125 L -0.5 -6.84375 C -0.0195312 -6.726562 0.550781 -6.65625 1.21875 -6.625 C 1.882812 -6.601562 2.582031 -6.628906 3.3125 -6.703125 C 4.039062 -6.773438 4.753906 -6.867188 5.453125 -6.984375 C 6.148438 -7.097656 6.757812 -7.253906 7.28125 -7.453125 Z M 7.28125 -7.453125 "/></g></g></g><g fill="#000000" fill-opacity="1"><g transform="translate(142.971944, 50.613523)"><g/></g></g><g fill="#000000" fill-opacity="1"><g transform="translate(150.88176, 48.019832)"><g><path d="M 15.265625 -12.328125 C 14.535156 -12.222656 13.878906 -12.125 13.296875 -12.03125 C 12.722656 -11.9375 12.160156 -11.84375 11.609375 -11.75 C 11.066406 -11.664062 10.503906 -11.578125 9.921875 -11.484375 C 9.347656 -11.390625 8.695312 -11.273438 7.96875 -11.140625 C 7.238281 -11.003906 6.585938 -10.875 6.015625 -10.75 C 5.453125 -10.625 4.894531 -10.5 4.34375 -10.375 C 3.800781 -10.257812 3.242188 -10.144531 2.671875 -10.03125 C 2.109375 -9.914062 1.460938 -9.773438 0.734375 -9.609375 L 0.1875 -13.8125 C 0.914062 -13.914062 1.566406 -14.003906 2.140625 -14.078125 C 2.722656 -14.160156 3.285156 -14.242188 3.828125 -14.328125 C 4.378906 -14.421875 4.941406 -14.519531 5.515625 -14.625 C 6.097656 -14.738281 6.753906 -14.863281 7.484375 -15 C 8.210938 -15.132812 8.863281 -15.253906 9.4375 -15.359375 C 10.007812 -15.472656 10.566406 -15.585938 11.109375 -15.703125 C 11.648438 -15.816406 12.210938 -15.945312 12.796875 -16.09375 C 13.378906 -16.238281 14.035156 -16.394531 14.765625 -16.5625 Z M 15.265625 -12.328125 "/></g></g></g><g fill="#000000" fill-opacity="1"><g transform="translate(169.1478, 44.759562)"><g/></g></g><g fill="#000000" fill-opacity="1"><g transform="translate(177.0133, 43.386109)"><g><path d="M 2.328125 -14.796875 C 2.484375 -20.878906 3.835938 -25.375 6.390625 -28.28125 C 8.953125 -31.1875 12.5 -32.582031 17.03125 -32.46875 C 18.414062 -32.4375 19.5625 -32.316406 20.46875 -32.109375 C 21.375 -31.898438 22.210938 -31.785156 22.984375 -31.765625 C 23.492188 -31.753906 24.007812 -31.785156 24.53125 -31.859375 C 25.0625 -31.929688 25.625 -32.039062 26.21875 -32.1875 L 26.40625 -20.453125 L 21.234375 -19.984375 C 21.273438 -20.453125 21.304688 -20.890625 21.328125 -21.296875 C 21.359375 -21.703125 21.378906 -22.085938 21.390625 -22.453125 C 21.441406 -24.359375 21.140625 -25.847656 20.484375 -26.921875 C 19.835938 -27.992188 18.632812 -28.550781 16.875 -28.59375 C 11.457031 -28.738281 8.640625 -24.484375 8.421875 -15.828125 C 8.359375 -13.765625 8.484375 -12.003906 8.796875 -10.546875 C 9.117188 -9.085938 9.625 -7.894531 10.3125 -6.96875 C 11 -6.039062 11.867188 -5.351562 12.921875 -4.90625 C 13.972656 -4.46875 15.191406 -4.234375 16.578125 -4.203125 C 18.085938 -4.160156 19.582031 -4.34375 21.0625 -4.75 C 22.550781 -5.164062 23.992188 -5.613281 25.390625 -6.09375 L 25.265625 -1.1875 C 23.859375 -0.34375 22.226562 0.226562 20.375 0.53125 C 18.519531 0.84375 16.726562 0.976562 15 0.9375 C 13.28125 0.894531 11.628906 0.660156 10.046875 0.234375 C 8.472656 -0.179688 7.097656 -0.96875 5.921875 -2.125 C 4.753906 -3.28125 3.84375 -4.867188 3.1875 -6.890625 C 2.53125 -8.921875 2.242188 -11.554688 2.328125 -14.796875 Z M 2.328125 -14.796875 "/></g></g></g><g fill="#000000" fill-opacity="1"><g transform="translate(202.316068, 43.992606)"><g><path d="M 15.5625 -17.25 C 14.144531 -17.519531 12.914062 -16.976562 11.875 -15.625 C 10.832031 -14.28125 10.0625 -12.304688 9.5625 -9.703125 C 9.070312 -7.160156 9.003906 -5.125 9.359375 -3.59375 C 9.710938 -2.0625 10.664062 -1.148438 12.21875 -0.859375 C 13.632812 -0.585938 14.882812 -1.15625 15.96875 -2.5625 C 17.050781 -3.976562 17.835938 -5.988281 18.328125 -8.59375 C 18.566406 -9.800781 18.71875 -10.898438 18.78125 -11.890625 C 18.84375 -12.890625 18.78125 -13.757812 18.59375 -14.5 C 18.40625 -15.238281 18.066406 -15.84375 17.578125 -16.3125 C 17.085938 -16.78125 16.414062 -17.09375 15.5625 -17.25 Z M 3.59375 -10.703125 C 3.957031 -12.578125 4.535156 -14.222656 5.328125 -15.640625 C 6.128906 -17.054688 7.09375 -18.203125 8.21875 -19.078125 C 9.351562 -19.960938 10.640625 -20.5625 12.078125 -20.875 C 13.523438 -21.195312 15.066406 -21.203125 16.703125 -20.890625 C 19.773438 -20.304688 21.984375 -18.867188 23.328125 -16.578125 C 24.671875 -14.285156 25.003906 -11.367188 24.328125 -7.828125 C 23.960938 -5.921875 23.367188 -4.242188 22.546875 -2.796875 C 21.734375 -1.359375 20.753906 -0.175781 19.609375 0.75 C 18.472656 1.675781 17.1875 2.304688 15.75 2.640625 C 14.3125 2.972656 12.796875 2.988281 11.203125 2.6875 C 9.691406 2.394531 8.378906 1.863281 7.265625 1.09375 C 6.160156 0.320312 5.28125 -0.640625 4.625 -1.796875 C 3.96875 -2.953125 3.546875 -4.285156 3.359375 -5.796875 C 3.179688 -7.304688 3.257812 -8.941406 3.59375 -10.703125 Z M 3.59375 -10.703125 "/></g></g></g><g fill="#000000" fill-opacity="1"><g transform="translate(223.543941, 47.801859)"><g><path d="M 13.953125 -20.140625 C 14.242188 -19.097656 14.445312 -18.191406 14.5625 -17.421875 C 14.6875 -16.660156 14.71875 -15.914062 14.65625 -15.1875 C 15.25 -15.5 15.910156 -15.804688 16.640625 -16.109375 C 17.378906 -16.421875 18.128906 -16.660156 18.890625 -16.828125 C 19.648438 -16.992188 20.4375 -17.078125 21.25 -17.078125 C 22.070312 -17.085938 22.878906 -16.953125 23.671875 -16.671875 C 24.390625 -16.410156 25.039062 -16.023438 25.625 -15.515625 C 26.21875 -15.015625 26.664062 -14.363281 26.96875 -13.5625 C 27.28125 -12.769531 27.40625 -11.796875 27.34375 -10.640625 C 27.289062 -9.484375 26.984375 -8.125 26.421875 -6.5625 C 26.273438 -6.15625 26.054688 -5.5625 25.765625 -4.78125 C 25.484375 -4.007812 25.171875 -3.179688 24.828125 -2.296875 C 24.484375 -1.421875 24.15625 -0.582031 23.84375 0.21875 C 23.539062 1.03125 23.3125 1.65625 23.15625 2.09375 C 22.820312 3.050781 22.554688 3.992188 22.359375 4.921875 C 22.171875 5.847656 22.140625 6.664062 22.265625 7.375 L 15.84375 6.234375 C 15.875 5.492188 16.003906 4.722656 16.234375 3.921875 C 16.472656 3.128906 16.691406 2.445312 16.890625 1.875 C 17.179688 1.050781 17.503906 0.222656 17.859375 -0.609375 C 18.210938 -1.453125 18.550781 -2.265625 18.875 -3.046875 C 19.207031 -3.828125 19.519531 -4.5625 19.8125 -5.25 C 20.113281 -5.945312 20.363281 -6.5625 20.5625 -7.09375 C 21.164062 -8.800781 21.289062 -10.078125 20.9375 -10.921875 C 20.582031 -11.773438 19.898438 -12.378906 18.890625 -12.734375 C 18.046875 -13.035156 17.21875 -13.179688 16.40625 -13.171875 C 15.601562 -13.171875 14.859375 -13.082031 14.171875 -12.90625 C 14.035156 -12.320312 13.847656 -11.695312 13.609375 -11.03125 C 13.367188 -10.363281 13.097656 -9.597656 12.796875 -8.734375 C 12.316406 -7.398438 11.882812 -6.195312 11.5 -5.125 C 11.113281 -4.050781 10.757812 -3.046875 10.4375 -2.109375 C 10.125 -1.171875 9.828125 -0.289062 9.546875 0.53125 C 9.273438 1.363281 8.992188 2.222656 8.703125 3.109375 L 2.828125 1.015625 C 3.109375 0.328125 3.414062 -0.441406 3.75 -1.296875 C 4.082031 -2.160156 4.445312 -3.070312 4.84375 -4.03125 C 5.238281 -4.988281 5.632812 -5.976562 6.03125 -7 C 6.425781 -8.019531 6.796875 -9.003906 7.140625 -9.953125 C 7.546875 -11.085938 7.84375 -12.019531 8.03125 -12.75 C 8.226562 -13.488281 8.335938 -14.15625 8.359375 -14.75 C 8.378906 -15.34375 8.320312 -15.914062 8.1875 -16.46875 C 8.0625 -17.03125 7.867188 -17.6875 7.609375 -18.4375 Z M 13.953125 -20.140625 "/></g></g></g><g fill="#000000" fill-opacity="1"><g transform="translate(245.351058, 55.769314)"><g><path d="M 10.953125 -19.9375 C 11.890625 -19.519531 12.710938 -19.296875 13.421875 -19.265625 C 14.128906 -19.234375 14.796875 -19.378906 15.421875 -19.703125 C 16.054688 -20.023438 16.707031 -20.53125 17.375 -21.21875 C 18.039062 -21.90625 18.796875 -22.769531 19.640625 -23.8125 L 24.03125 -22.953125 C 23.007812 -21.578125 22.132812 -20.347656 21.40625 -19.265625 C 20.6875 -18.179688 19.992188 -17.117188 19.328125 -16.078125 L 23.765625 -13.8125 L 21.625 -10.515625 L 17.46875 -12.96875 C 16.519531 -11.382812 15.671875 -9.90625 14.921875 -8.53125 C 14.179688 -7.164062 13.5625 -5.992188 13.0625 -5.015625 C 12.488281 -3.878906 12.0625 -2.957031 11.78125 -2.25 C 11.5 -1.550781 11.335938 -0.976562 11.296875 -0.53125 C 11.253906 -0.0820312 11.332031 0.265625 11.53125 0.515625 C 11.726562 0.773438 12.03125 1.007812 12.4375 1.21875 C 13 1.5 13.578125 1.695312 14.171875 1.8125 C 14.773438 1.9375 15.304688 1.976562 15.765625 1.9375 L 12.96875 5.90625 C 12.125 5.914062 11.367188 5.863281 10.703125 5.75 C 10.046875 5.632812 9.316406 5.375 8.515625 4.96875 C 7.609375 4.5 6.882812 3.953125 6.34375 3.328125 C 5.800781 2.710938 5.46875 1.96875 5.34375 1.09375 C 5.21875 0.21875 5.304688 -0.789062 5.609375 -1.9375 C 5.921875 -3.082031 6.457031 -4.390625 7.21875 -5.859375 C 7.84375 -7.097656 8.671875 -8.578125 9.703125 -10.296875 C 10.734375 -12.023438 11.804688 -13.8125 12.921875 -15.65625 L 9.921875 -17.1875 Z M 10.953125 -19.9375 "/></g></g></g><g fill="#000000" fill-opacity="1"><g transform="translate(258.007244, 61.895061)"><g><path d="M 6.015625 4.703125 C 4.410156 3.628906 3.484375 2.207031 3.234375 0.4375 C 2.984375 -1.320312 3.453125 -3.082031 4.640625 -4.84375 C 5.878906 -6.6875 7.40625 -7.789062 9.21875 -8.15625 C 11.03125 -8.53125 12.832031 -8.117188 14.625 -6.921875 C 15.363281 -6.421875 16.035156 -5.816406 16.640625 -5.109375 C 17.253906 -4.410156 17.722656 -3.675781 18.046875 -2.90625 L 19.484375 -5.046875 C 20.296875 -6.242188 20.632812 -7.238281 20.5 -8.03125 C 20.375 -8.832031 19.75 -9.613281 18.625 -10.375 C 17.851562 -10.894531 16.972656 -11.34375 15.984375 -11.71875 C 15.003906 -12.101562 14.164062 -12.328125 13.46875 -12.390625 L 14.734375 -16.890625 C 15.234375 -16.773438 15.800781 -16.613281 16.4375 -16.40625 C 17.082031 -16.195312 17.742188 -15.9375 18.421875 -15.625 C 19.097656 -15.320312 19.773438 -14.984375 20.453125 -14.609375 C 21.140625 -14.234375 21.753906 -13.867188 22.296875 -13.515625 C 26.796875 -10.484375 27.570312 -6.773438 24.625 -2.390625 C 24.351562 -1.992188 23.945312 -1.4375 23.40625 -0.71875 C 22.875 -0.0078125 22.316406 0.734375 21.734375 1.515625 C 21.160156 2.296875 20.617188 3.015625 20.109375 3.671875 C 19.609375 4.335938 19.257812 4.8125 19.0625 5.09375 C 18.664062 5.675781 18.472656 6.15625 18.484375 6.53125 C 18.492188 6.90625 18.75 7.257812 19.25 7.59375 C 19.570312 7.8125 19.984375 8.015625 20.484375 8.203125 L 17.40625 11.484375 C 16.90625 11.328125 16.453125 11.171875 16.046875 11.015625 C 15.648438 10.867188 15.273438 10.671875 14.921875 10.421875 C 13.972656 9.785156 13.351562 8.988281 13.0625 8.03125 C 12.78125 7.082031 12.90625 6.078125 13.4375 5.015625 C 12.257812 5.679688 11.015625 5.988281 9.703125 5.9375 C 8.390625 5.894531 7.160156 5.484375 6.015625 4.703125 Z M 10.234375 2.421875 C 11.054688 2.972656 11.953125 3.148438 12.921875 2.953125 C 13.890625 2.753906 14.675781 2.207031 15.28125 1.3125 C 15.789062 0.539062 15.96875 -0.226562 15.8125 -1 C 15.664062 -1.769531 15.1875 -2.425781 14.375 -2.96875 C 13.53125 -3.539062 12.691406 -3.734375 11.859375 -3.546875 C 11.035156 -3.359375 10.320312 -2.816406 9.71875 -1.921875 C 9.144531 -1.078125 8.898438 -0.269531 8.984375 0.5 C 9.066406 1.28125 9.484375 1.921875 10.234375 2.421875 Z M 10.234375 2.421875 "/></g></g></g><g fill="#000000" fill-opacity="1"><g transform="translate(274.770165, 73.061482)"><g><path d="M 7.890625 -6.421875 C 9.421875 -8.140625 10.941406 -9.46875 12.453125 -10.40625 C 13.972656 -11.34375 15.453125 -11.925781 16.890625 -12.15625 C 18.328125 -12.382812 19.695312 -12.289062 21 -11.875 C 22.300781 -11.457031 23.503906 -10.757812 24.609375 -9.78125 C 25.316406 -9.144531 25.847656 -8.550781 26.203125 -8 C 26.566406 -7.457031 27.035156 -6.929688 27.609375 -6.421875 C 27.867188 -6.191406 28.132812 -6 28.40625 -5.84375 C 28.675781 -5.6875 29.101562 -5.46875 29.6875 -5.1875 L 24.109375 1.828125 L 20.328125 -0.71875 C 20.554688 -0.925781 20.757812 -1.117188 20.9375 -1.296875 C 21.125 -1.484375 21.320312 -1.695312 21.53125 -1.9375 C 22.65625 -3.195312 23.234375 -4.296875 23.265625 -5.234375 C 23.296875 -6.179688 23.054688 -6.882812 22.546875 -7.34375 C 21.441406 -8.320312 20.113281 -8.472656 18.5625 -7.796875 C 17.019531 -7.117188 15.253906 -5.664062 13.265625 -3.4375 C 11.578125 -1.539062 10.671875 0.09375 10.546875 1.46875 C 10.421875 2.84375 10.945312 4.050781 12.125 5.09375 C 12.925781 5.8125 13.847656 6.378906 14.890625 6.796875 C 15.941406 7.210938 16.878906 7.5625 17.703125 7.84375 L 14.984375 10.890625 C 13.671875 10.890625 12.382812 10.566406 11.125 9.921875 C 9.863281 9.273438 8.703125 8.476562 7.640625 7.53125 C 6.796875 6.78125 6.054688 5.9375 5.421875 5 C 4.785156 4.070312 4.398438 3.039062 4.265625 1.90625 C 4.128906 0.78125 4.328125 -0.46875 4.859375 -1.84375 C 5.398438 -3.226562 6.410156 -4.753906 7.890625 -6.421875 Z M 7.890625 -6.421875 "/></g></g></g><g fill="#000000" fill-opacity="1"><g transform="translate(288.911635, 85.691842)"><g><path d="M 17.421875 -14.609375 C 18.148438 -13.890625 18.835938 -13.382812 19.484375 -13.09375 C 20.128906 -12.8125 20.800781 -12.707031 21.5 -12.78125 C 22.207031 -12.851562 23 -13.09375 23.875 -13.5 C 24.75 -13.90625 25.769531 -14.4375 26.9375 -15.09375 L 30.71875 -12.703125 C 29.269531 -11.796875 28.007812 -10.96875 26.9375 -10.21875 C 25.863281 -9.46875 24.828125 -8.726562 23.828125 -8 L 27.15625 -4.265625 L 23.953125 -1.96875 L 20.96875 -5.78125 C 19.507812 -4.644531 18.1875 -3.570312 17 -2.5625 C 15.8125 -1.5625 14.804688 -0.691406 13.984375 0.046875 C 13.035156 0.890625 12.300781 1.585938 11.78125 2.140625 C 11.269531 2.703125 10.914062 3.1875 10.71875 3.59375 C 10.519531 4 10.46875 4.351562 10.5625 4.65625 C 10.664062 4.96875 10.867188 5.296875 11.171875 5.640625 C 11.585938 6.109375 12.050781 6.503906 12.5625 6.828125 C 13.070312 7.148438 13.550781 7.378906 14 7.515625 L 9.953125 10.203125 C 9.160156 9.910156 8.476562 9.585938 7.90625 9.234375 C 7.332031 8.878906 6.742188 8.367188 6.140625 7.703125 C 5.460938 6.941406 4.984375 6.171875 4.703125 5.390625 C 4.421875 4.617188 4.378906 3.800781 4.578125 2.9375 C 4.785156 2.082031 5.238281 1.175781 5.9375 0.21875 C 6.632812 -0.726562 7.601562 -1.753906 8.84375 -2.859375 C 9.875 -3.785156 11.179688 -4.863281 12.765625 -6.09375 C 14.359375 -7.320312 16.007812 -8.597656 17.71875 -9.921875 L 15.46875 -12.4375 Z M 17.421875 -14.609375 "/></g></g></g><g fill="#000000" fill-opacity="1"><g transform="translate(298.609315, 96.671909)"><g/></g></g><g fill="#000000" fill-opacity="1"><g transform="translate(303.973298, 102.403319)"><g><path d="M 14.453125 2.46875 C 13.296875 3.125 12.394531 3.835938 11.75 4.609375 C 11.113281 5.378906 10.679688 6.171875 10.453125 6.984375 C 10.234375 7.804688 10.191406 8.617188 10.328125 9.421875 C 10.460938 10.234375 10.726562 10.988281 11.125 11.6875 C 11.457031 12.28125 11.925781 12.816406 12.53125 13.296875 C 13.132812 13.785156 13.847656 14.148438 14.671875 14.390625 C 15.503906 14.628906 16.421875 14.691406 17.421875 14.578125 C 18.429688 14.472656 19.5 14.113281 20.625 13.5 C 21.457031 13.070312 22.359375 12.585938 23.328125 12.046875 C 24.296875 11.515625 25.539062 10.816406 27.0625 9.953125 C 28.988281 8.847656 30.882812 7.742188 32.75 6.640625 C 34.625 5.535156 36.546875 4.375 38.515625 3.15625 L 42.1875 8.65625 C 41.332031 9.03125 40.472656 9.4375 39.609375 9.875 C 38.753906 10.3125 37.816406 10.8125 36.796875 11.375 C 35.785156 11.9375 34.65625 12.566406 33.40625 13.265625 C 32.15625 13.960938 30.726562 14.769531 29.125 15.6875 L 23.90625 18.671875 C 22.238281 19.617188 20.582031 20.160156 18.9375 20.296875 C 17.300781 20.429688 15.75 20.253906 14.28125 19.765625 C 12.8125 19.273438 11.460938 18.492188 10.234375 17.421875 C 9.003906 16.347656 7.972656 15.070312 7.140625 13.59375 C 6.296875 12.113281 5.742188 10.597656 5.484375 9.046875 C 5.234375 7.492188 5.285156 5.984375 5.640625 4.515625 C 5.992188 3.054688 6.660156 1.679688 7.640625 0.390625 C 8.628906 -0.898438 9.941406 -2.007812 11.578125 -2.9375 C 12.347656 -3.375 13.226562 -3.859375 14.21875 -4.390625 C 15.21875 -4.921875 16.398438 -5.578125 17.765625 -6.359375 C 19.691406 -7.460938 21.585938 -8.5625 23.453125 -9.65625 C 25.328125 -10.757812 27.25 -11.925781 29.21875 -13.15625 L 32.890625 -7.640625 C 32.035156 -7.265625 31.175781 -6.859375 30.3125 -6.421875 C 29.445312 -5.984375 28.503906 -5.488281 27.484375 -4.9375 C 26.472656 -4.382812 25.34375 -3.753906 24.09375 -3.046875 C 22.851562 -2.335938 21.429688 -1.523438 19.828125 -0.609375 Z M 14.453125 2.46875 "/></g></g></g><g fill="#000000" fill-opacity="1"><g transform="translate(318.000254, 127.616933)"><g><path d="M 7.421875 7.3125 C 7.734375 8.113281 8.113281 8.628906 8.5625 8.859375 C 9.007812 9.085938 9.519531 9.09375 10.09375 8.875 C 10.46875 8.726562 10.757812 8.539062 10.96875 8.3125 C 11.175781 8.09375 11.328125 7.804688 11.421875 7.453125 C 11.515625 7.097656 11.578125 6.671875 11.609375 6.171875 C 11.640625 5.671875 11.65625 5.078125 11.65625 4.390625 C 11.644531 3.597656 11.660156 2.785156 11.703125 1.953125 C 11.753906 1.128906 11.921875 0.34375 12.203125 -0.40625 C 12.484375 -1.15625 12.945312 -1.847656 13.59375 -2.484375 C 14.238281 -3.128906 15.148438 -3.675781 16.328125 -4.125 C 17.710938 -4.644531 18.929688 -4.796875 19.984375 -4.578125 C 21.035156 -4.367188 21.9375 -3.96875 22.6875 -3.375 C 23.445312 -2.78125 24.070312 -2.0625 24.5625 -1.21875 C 25.0625 -0.382812 25.453125 0.40625 25.734375 1.15625 C 26.046875 1.988281 26.316406 2.921875 26.546875 3.953125 C 26.785156 4.992188 26.898438 5.894531 26.890625 6.65625 L 22.3125 8.390625 C 22.289062 7.835938 22.242188 7.257812 22.171875 6.65625 C 22.097656 6.0625 22.003906 5.488281 21.890625 4.9375 C 21.773438 4.382812 21.65625 3.867188 21.53125 3.390625 C 21.40625 2.910156 21.285156 2.523438 21.171875 2.234375 C 20.472656 0.390625 19.488281 -0.285156 18.21875 0.203125 C 17.320312 0.535156 16.800781 1.191406 16.65625 2.171875 C 16.519531 3.148438 16.460938 4.3125 16.484375 5.65625 C 16.492188 6.476562 16.453125 7.265625 16.359375 8.015625 C 16.265625 8.773438 16.054688 9.488281 15.734375 10.15625 C 15.421875 10.832031 14.941406 11.445312 14.296875 12 C 13.648438 12.550781 12.789062 13.03125 11.71875 13.4375 C 9.539062 14.269531 7.71875 14.269531 6.25 13.4375 C 4.78125 12.601562 3.675781 11.222656 2.9375 9.296875 C 2.550781 8.265625 2.265625 7.070312 2.078125 5.71875 C 1.890625 4.375 1.867188 2.984375 2.015625 1.546875 L 6.84375 -0.46875 C 6.71875 0.0078125 6.644531 0.582031 6.625 1.25 C 6.601562 1.914062 6.625 2.613281 6.6875 3.34375 C 6.75 4.082031 6.835938 4.796875 6.953125 5.484375 C 7.066406 6.179688 7.222656 6.789062 7.421875 7.3125 Z M 7.421875 7.3125 "/></g></g></g><g fill="#000000" fill-opacity="1"><g transform="translate(323.87825, 143.447687)"><g/></g></g><g fill="#000000" fill-opacity="1"><g transform="translate(326.428105, 151.375925)"><g><path d="M 12.25 15.328125 C 12.144531 14.585938 12.046875 13.929688 11.953125 13.359375 C 11.859375 12.785156 11.769531 12.222656 11.6875 11.671875 C 11.601562 11.117188 11.515625 10.550781 11.421875 9.96875 C 11.335938 9.394531 11.226562 8.75 11.09375 8.03125 C 10.957031 7.300781 10.828125 6.648438 10.703125 6.078125 C 10.585938 5.503906 10.472656 4.941406 10.359375 4.390625 C 10.242188 3.847656 10.128906 3.289062 10.015625 2.71875 C 9.898438 2.144531 9.757812 1.5 9.59375 0.78125 L 13.828125 0.25 C 13.921875 0.976562 14.003906 1.632812 14.078125 2.21875 C 14.148438 2.800781 14.226562 3.363281 14.3125 3.90625 C 14.40625 4.445312 14.503906 5.007812 14.609375 5.59375 C 14.710938 6.175781 14.832031 6.828125 14.96875 7.546875 C 15.09375 8.273438 15.207031 8.925781 15.3125 9.5 C 15.425781 10.070312 15.539062 10.632812 15.65625 11.1875 C 15.769531 11.738281 15.894531 12.300781 16.03125 12.875 C 16.175781 13.457031 16.328125 14.113281 16.484375 14.84375 Z M 12.25 15.328125 "/></g></g></g><g fill="#000000" fill-opacity="1"><g transform="translate(329.607739, 169.651074)"><g/></g></g><g fill="#000000" fill-opacity="1"><g transform="translate(330.407815, 178.428586)"><g/></g></g><g fill="#000000" fill-opacity="1"><g transform="translate(331.254574, 186.370838)"><g><path d="M 14.609375 3.28125 C 20.671875 3.84375 25.066406 5.492188 27.796875 8.234375 C 30.535156 10.984375 31.695312 14.617188 31.28125 19.140625 C 31.15625 20.515625 30.957031 21.644531 30.6875 22.53125 C 30.414062 23.425781 30.25 24.257812 30.1875 25.03125 C 30.132812 25.550781 30.128906 26.070312 30.171875 26.59375 C 30.210938 27.125 30.285156 27.6875 30.390625 28.28125 L 18.65625 27.703125 L 18.515625 22.5 C 18.984375 22.570312 19.425781 22.632812 19.84375 22.6875 C 20.257812 22.738281 20.648438 22.785156 21.015625 22.828125 C 22.910156 22.992188 24.410156 22.789062 25.515625 22.21875 C 26.617188 21.644531 27.253906 20.484375 27.421875 18.734375 C 27.921875 13.335938 23.859375 10.238281 15.234375 9.4375 C 13.171875 9.25 11.40625 9.265625 9.9375 9.484375 C 8.46875 9.710938 7.242188 10.132812 6.265625 10.75 C 5.296875 11.375 4.554688 12.191406 4.046875 13.203125 C 3.535156 14.222656 3.21875 15.425781 3.09375 16.8125 C 2.957031 18.3125 3.039062 19.816406 3.34375 21.328125 C 3.65625 22.847656 4.003906 24.320312 4.390625 25.75 L -0.5 25.296875 C -1.238281 23.835938 -1.703125 22.171875 -1.890625 20.296875 C -2.078125 18.421875 -2.085938 16.625 -1.921875 14.90625 C -1.765625 13.195312 -1.421875 11.566406 -0.890625 10.015625 C -0.367188 8.460938 0.503906 7.140625 1.734375 6.046875 C 2.960938 4.953125 4.609375 4.144531 6.671875 3.625 C 8.734375 3.101562 11.378906 2.988281 14.609375 3.28125 Z M 14.609375 3.28125 "/></g></g></g><g fill="#000000" fill-opacity="1"><g transform="translate(328.972995, 211.580185)"><g><path d="M 16.1875 16.6875 C 16.550781 15.289062 16.09375 14.023438 14.8125 12.890625 C 13.53125 11.753906 11.613281 10.851562 9.0625 10.1875 C 6.550781 9.53125 4.519531 9.328125 2.96875 9.578125 C 1.425781 9.828125 0.457031 10.71875 0.0625 12.25 C -0.300781 13.644531 0.179688 14.929688 1.515625 16.109375 C 2.847656 17.285156 4.789062 18.207031 7.34375 18.875 C 8.550781 19.1875 9.644531 19.40625 10.625 19.53125 C 11.613281 19.65625 12.484375 19.648438 13.234375 19.515625 C 13.984375 19.378906 14.609375 19.082031 15.109375 18.625 C 15.617188 18.164062 15.976562 17.519531 16.1875 16.6875 Z M 10.4375 4.296875 C 12.28125 4.785156 13.878906 5.472656 15.234375 6.359375 C 16.597656 7.253906 17.679688 8.289062 18.484375 9.46875 C 19.296875 10.65625 19.8125 11.976562 20.03125 13.4375 C 20.257812 14.894531 20.164062 16.429688 19.75 18.046875 C 18.957031 21.078125 17.375 23.1875 15 24.375 C 12.625 25.5625 9.691406 25.703125 6.203125 24.796875 C 4.328125 24.304688 2.691406 23.609375 1.296875 22.703125 C -0.0859375 21.796875 -1.203125 20.738281 -2.046875 19.53125 C -2.898438 18.320312 -3.445312 16.988281 -3.6875 15.53125 C -3.925781 14.082031 -3.84375 12.570312 -3.4375 11 C -3.039062 9.507812 -2.421875 8.238281 -1.578125 7.1875 C -0.734375 6.132812 0.285156 5.316406 1.484375 4.734375 C 2.679688 4.148438 4.035156 3.816406 5.546875 3.734375 C 7.066406 3.660156 8.695312 3.847656 10.4375 4.296875 Z M 10.4375 4.296875 "/></g></g></g><g fill="#000000" fill-opacity="1"><g transform="translate(323.768406, 232.508782)"><g><path d="M 19.171875 15.25 C 18.109375 15.46875 17.191406 15.613281 16.421875 15.6875 C 15.660156 15.757812 14.914062 15.738281 14.1875 15.625 C 14.445312 16.238281 14.707031 16.921875 14.96875 17.671875 C 15.226562 18.429688 15.414062 19.195312 15.53125 19.96875 C 15.65625 20.738281 15.691406 21.53125 15.640625 22.34375 C 15.585938 23.15625 15.394531 23.945312 15.0625 24.71875 C 14.757812 25.425781 14.332031 26.054688 13.78125 26.609375 C 13.238281 27.160156 12.5625 27.5625 11.75 27.8125 C 10.945312 28.0625 9.96875 28.117188 8.8125 27.984375 C 7.65625 27.859375 6.3125 27.46875 4.78125 26.8125 C 4.394531 26.632812 3.820312 26.375 3.0625 26.03125 C 2.300781 25.6875 1.492188 25.316406 0.640625 24.921875 C -0.203125 24.523438 -1.015625 24.144531 -1.796875 23.78125 C -2.578125 23.425781 -3.179688 23.15625 -3.609375 22.96875 C -4.546875 22.5625 -5.472656 22.234375 -6.390625 21.984375 C -7.304688 21.742188 -8.117188 21.65625 -8.828125 21.71875 L -7.265625 15.390625 C -6.535156 15.472656 -5.78125 15.65625 -5 15.9375 C -4.21875 16.226562 -3.546875 16.5 -2.984375 16.75 C -2.191406 17.09375 -1.382812 17.46875 -0.5625 17.875 C 0.25 18.28125 1.03125 18.671875 1.78125 19.046875 C 2.539062 19.421875 3.257812 19.78125 3.9375 20.125 C 4.613281 20.46875 5.207031 20.75 5.71875 20.96875 C 7.382812 21.6875 8.648438 21.894531 9.515625 21.59375 C 10.378906 21.300781 11.023438 20.664062 11.453125 19.6875 C 11.804688 18.863281 12.003906 18.050781 12.046875 17.25 C 12.097656 16.445312 12.0625 15.695312 11.9375 15 C 11.363281 14.820312 10.75 14.59375 10.09375 14.3125 C 9.445312 14.03125 8.707031 13.707031 7.875 13.34375 C 6.570312 12.78125 5.394531 12.269531 4.34375 11.8125 C 3.300781 11.363281 2.320312 10.945312 1.40625 10.5625 C 0.5 10.1875 -0.351562 9.828125 -1.15625 9.484375 C -1.96875 9.148438 -2.8125 8.816406 -3.6875 8.484375 L -1.1875 2.75 C -0.53125 3.070312 0.210938 3.429688 1.046875 3.828125 C 1.890625 4.222656 2.773438 4.648438 3.703125 5.109375 C 4.628906 5.566406 5.585938 6.023438 6.578125 6.484375 C 7.578125 6.941406 8.539062 7.375 9.46875 7.78125 C 10.570312 8.257812 11.484375 8.617188 12.203125 8.859375 C 12.921875 9.109375 13.578125 9.257812 14.171875 9.3125 C 14.765625 9.375 15.34375 9.359375 15.90625 9.265625 C 16.476562 9.171875 17.140625 9.019531 17.890625 8.8125 Z M 19.171875 15.25 "/></g></g></g><g fill="#000000" fill-opacity="1"><g transform="translate(314.378337, 253.738468)"><g><path d="M 19.15625 12.25 C 18.6875 13.15625 18.410156 13.957031 18.328125 14.65625 C 18.253906 15.363281 18.359375 16.046875 18.640625 16.703125 C 18.921875 17.359375 19.382812 18.039062 20.03125 18.75 C 20.675781 19.457031 21.488281 20.265625 22.46875 21.171875 L 21.3125 25.5 C 20.007812 24.394531 18.835938 23.441406 17.796875 22.640625 C 16.765625 21.847656 15.753906 21.082031 14.765625 20.34375 L 12.21875 24.625 L 9.046875 22.265625 L 11.78125 18.296875 C 10.257812 17.234375 8.84375 16.285156 7.53125 15.453125 C 6.21875 14.617188 5.085938 13.921875 4.140625 13.359375 C 3.046875 12.703125 2.15625 12.210938 1.46875 11.890625 C 0.789062 11.566406 0.226562 11.375 -0.21875 11.3125 C -0.664062 11.25 -1.019531 11.304688 -1.28125 11.484375 C -1.550781 11.660156 -1.800781 11.945312 -2.03125 12.34375 C -2.351562 12.875 -2.59375 13.429688 -2.75 14.015625 C -2.90625 14.609375 -2.976562 15.140625 -2.96875 15.609375 L -6.75 12.546875 C -6.707031 11.710938 -6.601562 10.96875 -6.4375 10.3125 C -6.28125 9.65625 -5.972656 8.941406 -5.515625 8.171875 C -4.992188 7.296875 -4.398438 6.601562 -3.734375 6.09375 C -3.078125 5.59375 -2.304688 5.3125 -1.421875 5.25 C -0.546875 5.1875 0.445312 5.34375 1.5625 5.71875 C 2.675781 6.101562 3.945312 6.722656 5.375 7.578125 C 6.5625 8.285156 7.984375 9.210938 9.640625 10.359375 C 11.296875 11.503906 13.003906 12.695312 14.765625 13.9375 L 16.5 11.046875 Z M 19.15625 12.25 "/></g></g></g><g fill="#000000" fill-opacity="1"><g transform="translate(307.42884, 265.961438)"><g><path d="M -5.109375 5.703125 C -3.921875 4.171875 -2.4375 3.335938 -0.65625 3.203125 C 1.113281 3.078125 2.84375 3.664062 4.53125 4.96875 C 6.28125 6.320312 7.28125 7.914062 7.53125 9.75 C 7.789062 11.582031 7.257812 13.347656 5.9375 15.046875 C 5.394531 15.753906 4.75 16.382812 4 16.9375 C 3.257812 17.5 2.492188 17.921875 1.703125 18.203125 L 3.734375 19.78125 C 4.878906 20.664062 5.851562 21.066406 6.65625 20.984375 C 7.46875 20.910156 8.289062 20.335938 9.125 19.265625 C 9.6875 18.523438 10.1875 17.675781 10.625 16.71875 C 11.070312 15.769531 11.359375 14.945312 11.484375 14.25 L 15.859375 15.828125 C 15.722656 16.316406 15.523438 16.867188 15.265625 17.484375 C 15.015625 18.109375 14.710938 18.75 14.359375 19.40625 C 14.015625 20.070312 13.632812 20.726562 13.21875 21.375 C 12.800781 22.03125 12.394531 22.613281 12 23.125 C 8.675781 27.425781 4.925781 27.960938 0.75 24.734375 C 0.375 24.441406 -0.144531 24 -0.8125 23.40625 C -1.488281 22.820312 -2.195312 22.210938 -2.9375 21.578125 C -3.6875 20.953125 -4.375 20.367188 -5 19.828125 C -5.625 19.285156 -6.070312 18.90625 -6.34375 18.6875 C -6.90625 18.257812 -7.367188 18.035156 -7.734375 18.015625 C -8.109375 18.003906 -8.476562 18.234375 -8.84375 18.703125 C -9.082031 19.015625 -9.316406 19.410156 -9.546875 19.890625 L -12.609375 16.59375 C -12.429688 16.113281 -12.253906 15.679688 -12.078125 15.296875 C -11.898438 14.910156 -11.675781 14.539062 -11.40625 14.1875 C -10.707031 13.289062 -9.867188 12.734375 -8.890625 12.515625 C -7.921875 12.296875 -6.925781 12.476562 -5.90625 13.0625 C -6.46875 11.851562 -6.6875 10.597656 -6.5625 9.296875 C -6.4375 7.992188 -5.953125 6.796875 -5.109375 5.703125 Z M -3.09375 10.046875 C -3.707031 10.828125 -3.941406 11.707031 -3.796875 12.6875 C -3.660156 13.675781 -3.171875 14.5 -2.328125 15.15625 C -1.585938 15.726562 -0.828125 15.960938 -0.046875 15.859375 C 0.722656 15.753906 1.410156 15.316406 2.015625 14.546875 C 2.640625 13.734375 2.882812 12.90625 2.75 12.0625 C 2.613281 11.226562 2.125 10.484375 1.28125 9.828125 C 0.46875 9.203125 -0.328125 8.90625 -1.109375 8.9375 C -1.890625 8.96875 -2.550781 9.335938 -3.09375 10.046875 Z M -3.09375 10.046875 "/></g></g></g><g fill="#000000" fill-opacity="1"><g transform="translate(295.174747, 281.951754)"><g><path d="M 5.875 8.296875 C 7.5 9.941406 8.726562 11.550781 9.5625 13.125 C 10.40625 14.695312 10.890625 16.207031 11.015625 17.65625 C 11.140625 19.113281 10.953125 20.472656 10.453125 21.734375 C 9.953125 22.992188 9.175781 24.144531 8.125 25.1875 C 7.445312 25.863281 6.820312 26.359375 6.25 26.671875 C 5.675781 26.992188 5.117188 27.425781 4.578125 27.96875 C 4.328125 28.207031 4.113281 28.457031 3.9375 28.71875 C 3.769531 28.988281 3.53125 29.40625 3.21875 29.96875 L -3.421875 23.9375 L -0.640625 20.328125 C -0.429688 20.566406 -0.238281 20.785156 -0.0625 20.984375 C 0.101562 21.179688 0.296875 21.390625 0.515625 21.609375 C 1.691406 22.816406 2.75 23.46875 3.6875 23.5625 C 4.632812 23.65625 5.347656 23.460938 5.828125 22.984375 C 6.878906 21.953125 7.117188 20.640625 6.546875 19.046875 C 5.972656 17.453125 4.640625 15.585938 2.546875 13.453125 C 0.765625 11.648438 -0.800781 10.640625 -2.15625 10.421875 C -3.519531 10.203125 -4.757812 10.644531 -5.875 11.75 C -6.644531 12.5 -7.269531 13.382812 -7.75 14.40625 C -8.238281 15.4375 -8.648438 16.351562 -8.984375 17.15625 L -11.84375 14.25 C -11.769531 12.9375 -11.367188 11.664062 -10.640625 10.4375 C -9.910156 9.21875 -9.039062 8.113281 -8.03125 7.125 C -7.21875 6.332031 -6.320312 5.648438 -5.34375 5.078125 C -4.375 4.503906 -3.320312 4.1875 -2.1875 4.125 C -1.050781 4.070312 0.1875 4.359375 1.53125 4.984375 C 2.875 5.609375 4.320312 6.710938 5.875 8.296875 Z M 5.875 8.296875 "/></g></g></g><g fill="#000000" fill-opacity="1"><g transform="translate(281.639338, 295.223845)"><g><path d="M 13.421875 18.359375 C 12.660156 19.023438 12.113281 19.675781 11.78125 20.3125 C 11.457031 20.945312 11.304688 21.613281 11.328125 22.3125 C 11.347656 23.019531 11.53125 23.820312 11.875 24.71875 C 12.226562 25.613281 12.695312 26.660156 13.28125 27.859375 L 10.640625 31.484375 C 9.828125 29.972656 9.082031 28.660156 8.40625 27.546875 C 7.726562 26.429688 7.0625 25.351562 6.40625 24.3125 L 2.46875 27.375 L 0.390625 24.03125 L 4.375 21.3125 C 3.332031 19.789062 2.347656 18.398438 1.421875 17.140625 C 0.503906 15.890625 -0.296875 14.828125 -0.984375 13.953125 C -1.765625 12.953125 -2.414062 12.175781 -2.9375 11.625 C -3.457031 11.070312 -3.910156 10.679688 -4.296875 10.453125 C -4.691406 10.234375 -5.046875 10.160156 -5.359375 10.234375 C -5.671875 10.304688 -6.007812 10.484375 -6.375 10.765625 C -6.863281 11.148438 -7.285156 11.585938 -7.640625 12.078125 C -7.992188 12.566406 -8.25 13.03125 -8.40625 13.46875 L -10.84375 9.25 C -10.5 8.476562 -10.132812 7.816406 -9.75 7.265625 C -9.363281 6.710938 -8.816406 6.160156 -8.109375 5.609375 C -7.304688 4.984375 -6.503906 4.554688 -5.703125 4.328125 C -4.910156 4.109375 -4.085938 4.125 -3.234375 4.375 C -2.390625 4.632812 -1.515625 5.144531 -0.609375 5.90625 C 0.296875 6.675781 1.253906 7.710938 2.265625 9.015625 C 3.117188 10.109375 4.109375 11.488281 5.234375 13.15625 C 6.359375 14.820312 7.519531 16.550781 8.71875 18.34375 L 11.390625 16.265625 Z M 13.421875 18.359375 "/></g></g></g><g fill="#000000" fill-opacity="1"><g transform="translate(270.043843, 304.171845)"><g/></g></g><g fill="#000000" fill-opacity="1"><g transform="translate(263.965832, 309.148902)"><g><path d="M -3.40625 14.25 C -3.988281 13.0625 -4.644531 12.117188 -5.375 11.421875 C -6.101562 10.734375 -6.867188 10.25 -7.671875 9.96875 C -8.472656 9.695312 -9.28125 9.601562 -10.09375 9.6875 C -10.914062 9.769531 -11.6875 9.984375 -12.40625 10.328125 C -13.019531 10.628906 -13.585938 11.0625 -14.109375 11.625 C -14.640625 12.195312 -15.050781 12.882812 -15.34375 13.6875 C -15.632812 14.5 -15.753906 15.410156 -15.703125 16.421875 C -15.660156 17.429688 -15.375 18.523438 -14.84375 19.703125 C -14.457031 20.546875 -14.03125 21.46875 -13.5625 22.46875 C -13.09375 23.476562 -12.472656 24.769531 -11.703125 26.34375 C -10.734375 28.34375 -9.757812 30.3125 -8.78125 32.25 C -7.8125 34.1875 -6.78125 36.175781 -5.6875 38.21875 L -11.421875 41.53125 C -11.742188 40.65625 -12.09375 39.769531 -12.46875 38.875 C -12.851562 37.976562 -13.289062 37.007812 -13.78125 35.96875 C -14.269531 34.925781 -14.820312 33.753906 -15.4375 32.453125 C -16.050781 31.160156 -16.765625 29.679688 -17.578125 28.015625 L -20.203125 22.625 C -21.035156 20.894531 -21.46875 19.203125 -21.5 17.546875 C -21.53125 15.898438 -21.25 14.363281 -20.65625 12.9375 C -20.070312 11.507812 -19.203125 10.21875 -18.046875 9.0625 C -16.898438 7.90625 -15.5625 6.957031 -14.03125 6.21875 C -12.507812 5.476562 -10.960938 5.03125 -9.390625 4.875 C -7.816406 4.726562 -6.3125 4.878906 -4.875 5.328125 C -3.4375 5.773438 -2.109375 6.53125 -0.890625 7.59375 C 0.328125 8.664062 1.347656 10.050781 2.171875 11.75 C 2.554688 12.539062 2.976562 13.453125 3.4375 14.484375 C 3.90625 15.515625 4.484375 16.734375 5.171875 18.140625 C 6.140625 20.140625 7.113281 22.109375 8.09375 24.046875 C 9.070312 25.984375 10.109375 27.972656 11.203125 30.015625 L 5.453125 33.328125 C 5.128906 32.453125 4.773438 31.566406 4.390625 30.671875 C 4.015625 29.773438 3.585938 28.800781 3.109375 27.75 C 2.628906 26.707031 2.078125 25.539062 1.453125 24.25 C 0.828125 22.957031 0.109375 21.476562 -0.703125 19.8125 Z M -3.40625 14.25 "/></g></g></g><g fill="#000000" fill-opacity="1"><g transform="translate(237.88215, 321.474359)"><g><path d="M -7.796875 6.921875 C -8.617188 7.171875 -9.15625 7.507812 -9.40625 7.9375 C -9.664062 8.375 -9.707031 8.882812 -9.53125 9.46875 C -9.40625 9.863281 -9.238281 10.171875 -9.03125 10.390625 C -8.820312 10.617188 -8.539062 10.789062 -8.1875 10.90625 C -7.84375 11.03125 -7.421875 11.117188 -6.921875 11.171875 C -6.421875 11.234375 -5.828125 11.289062 -5.140625 11.34375 C -4.359375 11.382812 -3.554688 11.457031 -2.734375 11.5625 C -1.910156 11.664062 -1.128906 11.878906 -0.390625 12.203125 C 0.335938 12.535156 1 13.046875 1.59375 13.734375 C 2.1875 14.421875 2.664062 15.363281 3.03125 16.5625 C 3.46875 17.976562 3.539062 19.203125 3.25 20.234375 C 2.96875 21.265625 2.503906 22.140625 1.859375 22.859375 C 1.210938 23.578125 0.457031 24.15625 -0.40625 24.59375 C -1.269531 25.039062 -2.082031 25.378906 -2.84375 25.609375 C -3.695312 25.867188 -4.648438 26.078125 -5.703125 26.234375 C -6.753906 26.398438 -7.660156 26.453125 -8.421875 26.390625 L -9.84375 21.71875 C -9.28125 21.726562 -8.695312 21.710938 -8.09375 21.671875 C -7.5 21.640625 -6.921875 21.585938 -6.359375 21.515625 C -5.804688 21.441406 -5.289062 21.359375 -4.8125 21.265625 C -4.332031 21.171875 -3.941406 21.078125 -3.640625 20.984375 C -1.753906 20.410156 -1.007812 19.476562 -1.40625 18.1875 C -1.675781 17.269531 -2.296875 16.707031 -3.265625 16.5 C -4.234375 16.289062 -5.390625 16.148438 -6.734375 16.078125 C -7.554688 16.035156 -8.34375 15.941406 -9.09375 15.796875 C -9.84375 15.660156 -10.539062 15.410156 -11.1875 15.046875 C -11.832031 14.679688 -12.410156 14.15625 -12.921875 13.46875 C -13.429688 12.789062 -13.851562 11.90625 -14.1875 10.8125 C -14.875 8.570312 -14.753906 6.75 -13.828125 5.34375 C -12.898438 3.9375 -11.453125 2.929688 -9.484375 2.328125 C -8.421875 2.003906 -7.210938 1.796875 -5.859375 1.703125 C -4.503906 1.609375 -3.113281 1.679688 -1.6875 1.921875 L 0.03125 6.859375 C -0.445312 6.710938 -1.019531 6.601562 -1.6875 6.53125 C -2.351562 6.457031 -3.050781 6.429688 -3.78125 6.453125 C -4.519531 6.472656 -5.238281 6.515625 -5.9375 6.578125 C -6.644531 6.648438 -7.265625 6.765625 -7.796875 6.921875 Z M -7.796875 6.921875 "/></g></g></g><g fill="#000000" fill-opacity="1"><g transform="translate(221.69871, 326.290654)"><g/></g></g><g fill="#000000" fill-opacity="1"><g transform="translate(213.612548, 328.316521)"><g><path d="M -16.109375 11.21875 C -15.359375 11.164062 -14.691406 11.109375 -14.109375 11.046875 C -13.535156 10.992188 -12.972656 10.941406 -12.421875 10.890625 C -11.867188 10.847656 -11.300781 10.800781 -10.71875 10.75 C -10.132812 10.695312 -9.476562 10.628906 -8.75 10.546875 C -8.007812 10.453125 -7.347656 10.363281 -6.765625 10.28125 C -6.191406 10.207031 -5.628906 10.128906 -5.078125 10.046875 C -4.523438 9.960938 -3.957031 9.878906 -3.375 9.796875 C -2.789062 9.722656 -2.140625 9.628906 -1.421875 9.515625 L -1.171875 13.765625 C -1.898438 13.816406 -2.554688 13.859375 -3.140625 13.890625 C -3.734375 13.929688 -4.300781 13.972656 -4.84375 14.015625 C -5.394531 14.066406 -5.960938 14.125 -6.546875 14.1875 C -7.128906 14.257812 -7.789062 14.335938 -8.53125 14.421875 C -9.257812 14.503906 -9.914062 14.578125 -10.5 14.640625 C -11.082031 14.710938 -11.648438 14.785156 -12.203125 14.859375 C -12.753906 14.941406 -13.320312 15.035156 -13.90625 15.140625 C -14.5 15.242188 -15.164062 15.351562 -15.90625 15.46875 Z M -16.109375 11.21875 "/></g></g></g><g fill="#000000" fill-opacity="1"><g transform="translate(195.173686, 330.273908)"><g/></g></g></svg>